<?xml version="1.0" encoding="utf-8"?>
<!-- Generator: Adobe Illustrator 25.4.1, SVG Export Plug-In . SVG Version: 6.00 Build 0)  -->
<svg version="1.1" id="Layer_1" xmlns="http://www.w3.org/2000/svg" xmlns:xlink="http://www.w3.org/1999/xlink" x="0px" y="0px"
	 viewBox="0 0 360 275" enable-background="new 0 0 360 275" xml:space="preserve">
<g>
	<g>
		<g>
			<g>
				<path fill="none" stroke="#9EC9FF" stroke-width="0.9513" stroke-miterlimit="10" d="M64.074,111.528v-6.621l-8.376-1.357
					c-0.331-1.12-0.774-2.191-1.322-3.198l4.962-6.88l-4.682-4.682l-6.88,4.962c-1.007-0.549-2.078-0.992-3.198-1.322l-1.357-8.376
					H36.6l-1.357,8.376c-1.12,0.331-2.191,0.774-3.198,1.322l-6.88-4.962l-4.682,4.682l4.962,6.88
					c-0.548,1.007-0.992,2.078-1.322,3.198l-8.376,1.357v6.621l8.376,1.357c0.331,1.12,0.774,2.192,1.322,3.198l-4.962,6.88
					l4.682,4.682l6.88-4.962c1.007,0.549,2.078,0.992,3.198,1.322l1.357,8.376h6.621l1.357-8.376
					c1.12-0.331,2.191-0.774,3.198-1.322l6.88,4.962l4.682-4.682l-4.962-6.88c0.549-1.007,0.992-2.078,1.322-3.198L64.074,111.528z"
					/>
				
					<ellipse transform="matrix(0.2242 -0.9745 0.9745 0.2242 -74.4999 122.8454)" fill="none" stroke="#9EC9FF" stroke-width="0.9513" stroke-miterlimit="10" cx="39.911" cy="108.217" rx="11.287" ry="11.287"/>
			</g>
			<g>
				<path fill="none" stroke="#9EC9FF" stroke-width="0.9513" stroke-miterlimit="10" d="M69.004,139.411l-1.583-3.544l-4.807,1.277
					c-0.445-0.52-0.938-0.988-1.472-1.395l1.011-4.868l-3.625-1.386l-2.496,4.301c-0.67-0.053-1.349-0.034-2.028,0.057l-2.729-4.158
					l-3.544,1.583l1.277,4.807c-0.52,0.445-0.988,0.938-1.396,1.472l-4.868-1.011l-1.386,3.625l4.301,2.496
					c-0.053,0.67-0.034,1.349,0.057,2.028l-4.158,2.729l1.583,3.544l4.807-1.277c0.445,0.52,0.938,0.988,1.472,1.395l-1.011,4.868
					l3.625,1.386l2.496-4.301c0.67,0.053,1.349,0.034,2.028-0.057l2.729,4.158l3.544-1.583l-1.277-4.807
					c0.52-0.445,0.988-0.938,1.395-1.472l4.868,1.01l1.386-3.625l-4.301-2.496c0.053-0.67,0.034-1.349-0.057-2.028L69.004,139.411z"
					/>
				<path fill="none" stroke="#9EC9FF" stroke-width="0.9513" stroke-miterlimit="10" d="M61.321,140.718
					c1.491,3.336-0.006,7.249-3.342,8.74c-3.336,1.491-7.249-0.006-8.74-3.342c-1.491-3.336,0.006-7.249,3.342-8.74
					C55.918,135.885,59.831,137.381,61.321,140.718z"/>
			</g>
		</g>
		<g>
			
				<rect x="309.499" y="143.46" fill="none" stroke="#9EC9FF" stroke-width="0.9513" stroke-miterlimit="10" width="6.741" height="24.558"/>
			
				<rect x="320.664" y="138.4" fill="none" stroke="#9EC9FF" stroke-width="0.9513" stroke-miterlimit="10" width="6.741" height="29.618"/>
			
				<rect x="331.828" y="129.763" fill="none" stroke="#9EC9FF" stroke-width="0.9513" stroke-miterlimit="10" width="6.741" height="38.255"/>
			<g>
				<g>
					<path fill="#9EC9FF" d="M308.552,137.695c9.682-1.755,18.686-6.833,25.296-14.11c1.869-2.057,3.541-4.291,4.991-6.662
						c0.318-0.52-0.498-0.994-0.815-0.476c-5.044,8.248-12.888,14.706-21.913,18.16c-2.53,0.968-5.145,1.696-7.81,2.179
						C307.705,136.893,307.958,137.803,308.552,137.695L308.552,137.695z"/>
				</g>
			</g>
		</g>
		<g>
			<g>
				<path fill="none" stroke="#9EC9FF" stroke-width="0.9513" stroke-miterlimit="10" d="M176.65,36.156
					c2.623-0.352,5.275-0.603,7.935-0.783c-1.803-8.486-9.336-14.854-18.36-14.854c-8.88,0-16.315,6.168-18.267,14.453
					c2.569,0.578,5.147,1.112,7.732,1.614c1.205-4.702,5.458-8.183,10.535-8.183C171.148,28.404,175.303,31.673,176.65,36.156z"/>
				<path fill="none" stroke="#9EC9FF" stroke-width="0.9513" stroke-miterlimit="10" d="M155.365,39.843
					c-2.634-0.507-5.262-1.045-7.879-1.628c-0.02,0.357-0.033,0.715-0.033,1.077c0,9.872,7.623,17.959,17.303,18.71
					c0.206-2.621,0.402-5.243,0.607-7.864C159.937,49.71,155.64,45.311,155.365,39.843z"/>
				<path fill="none" stroke="#9EC9FF" stroke-width="0.9513" stroke-miterlimit="10" d="M184.98,38.603
					c-2.642,0.171-5.274,0.414-7.871,0.766c-0.036,5.144-3.641,9.432-8.46,10.53c-0.211,2.692-0.411,5.385-0.623,8.077
					c9.522-0.907,16.971-8.924,16.971-18.684C184.997,39.061,184.988,38.832,184.98,38.603z"/>
			</g>
			<g>
				<rect x="208.698" y="24.402" fill="#9EC9FF" width="15.656" height="1.305"/>
				<rect x="193.043" y="29.137" fill="#9EC9FF" width="31.311" height="1.305"/>
				<rect x="193.043" y="33.873" fill="#9EC9FF" width="31.311" height="1.305"/>
				<rect x="193.043" y="38.608" fill="#9EC9FF" width="31.311" height="1.305"/>
				<rect x="193.043" y="43.344" fill="#9EC9FF" width="31.311" height="1.305"/>
				<rect x="193.043" y="48.079" fill="#9EC9FF" width="31.311" height="1.305"/>
				<rect x="193.043" y="52.814" fill="#9EC9FF" width="31.311" height="1.305"/>
			</g>
		</g>
		<g>
			<g>
				<g>
					<path fill="#9EC9FF" d="M297.041,24.402c-0.034,5.733-3.644,11.021-9.057,13.001c-5.482,2.005-11.735,0.31-15.469-4.169
						c-3.718-4.46-4.19-10.997-1.203-15.965c2.977-4.951,8.903-7.592,14.576-6.458c5.628,1.125,10.059,5.731,10.983,11.393
						C296.989,22.931,297.036,23.666,297.041,24.402c0.004,0.612,0.955,0.613,0.951,0c-0.037-6.151-3.902-11.74-9.677-13.89
						c-5.811-2.164-12.585-0.333-16.525,4.448c-3.945,4.787-4.505,11.724-1.3,17.055c3.191,5.308,9.494,8.089,15.567,6.912
						c6.013-1.165,10.842-6.183,11.756-12.242c0.114-0.757,0.174-1.517,0.178-2.282C297.996,23.79,297.044,23.789,297.041,24.402z"
						/>
				</g>
			</g>
			<g>
				<g>
					<path fill="#9EC9FF" d="M290.168,24.402c-0.011,2.702-0.376,5.416-1.286,7.969c-0.665,1.867-1.684,3.864-3.332,5.052
						c-1.289,0.929-2.863,1.099-4.26,0.298c-1.676-0.962-2.754-2.796-3.479-4.529c-2.042-4.884-2.138-10.861-0.601-15.894
						c0.892-2.923,3.442-8.054,7.351-6.474c1.973,0.797,3.225,2.92,4.005,4.79C289.72,18.381,290.156,21.418,290.168,24.402
						c0.002,0.612,0.954,0.613,0.951,0c-0.012-2.952-0.427-5.958-1.506-8.719c-0.771-1.973-1.897-3.973-3.685-5.194
						c-1.497-1.022-3.352-1.163-4.961-0.314c-1.843,0.972-3.076,2.901-3.89,4.755c-2.301,5.243-2.435,11.761-0.673,17.18
						c1.097,3.374,4.03,8.42,8.36,6.808c2.196-0.818,3.635-2.989,4.537-5.045c1.303-2.969,1.806-6.245,1.818-9.471
						C291.121,23.79,290.17,23.789,290.168,24.402z"/>
				</g>
			</g>
			<g>
				<g>
					<path fill="#9EC9FF" d="M273.106,14.562c6.007,2.013,12.675,2.042,18.782,0.416c0.466-0.124,0.934-0.253,1.388-0.416
						c0.572-0.205,0.325-1.125-0.253-0.917c-1.911,0.685-3.982,1.054-5.99,1.29c-4.596,0.541-9.276,0.184-13.674-1.29
						C272.777,13.45,272.527,14.368,273.106,14.562L273.106,14.562z"/>
				</g>
			</g>
			<g>
				<g>
					<path fill="#9EC9FF" d="M273.359,35.159c4.398-1.474,9.079-1.831,13.674-1.29c2.008,0.237,4.079,0.605,5.99,1.29
						c0.577,0.207,0.826-0.712,0.253-0.917c-1.285-0.461-2.648-0.75-3.988-0.991c-3.126-0.562-6.332-0.732-9.496-0.423
						c-2.276,0.222-4.517,0.687-6.686,1.414C272.528,34.436,272.776,35.355,273.359,35.159L273.359,35.159z"/>
				</g>
			</g>
			<g>
				<g>
					<path fill="#9EC9FF" d="M282.713,10.074c0,3.219,0,6.438,0,9.657c0,5.154,0,10.309,0,15.463c0,1.178,0,2.357,0,3.535
						c0,0.612,0.951,0.613,0.951,0c0-3.219,0-6.438,0-9.657c0-5.154,0-10.309,0-15.463c0-1.178,0-2.357,0-3.535
						C283.664,9.462,282.713,9.461,282.713,10.074L282.713,10.074z"/>
				</g>
			</g>
			<g>
				<g>
					<path fill="#9EC9FF" d="M268.735,24.861c8.843,1.53,18.016,1.469,26.902,0.295c0.67-0.089,1.34-0.179,2.006-0.295
						c0.602-0.105,0.347-1.022-0.253-0.917c-1.851,0.323-3.73,0.517-5.6,0.685c-4.488,0.403-9.007,0.524-13.508,0.311
						c-3.115-0.147-6.221-0.464-9.295-0.996C268.389,23.84,268.132,24.756,268.735,24.861L268.735,24.861z"/>
				</g>
			</g>
		</g>
	</g>
	<g>
		<g>
			<polygon fill="#FFFFFF" points="192.502,207.2 83.864,217.27 72.676,218.311 51.742,41.436 173.88,42.136 176.278,63.411 			"/>
			<g>
				<polygon fill="#FF4343" points="90.926,55.915 91.149,57.945 165.861,57.945 165.625,55.915 				"/>
				<polygon fill="#4A80BE" points="67.142,65.494 67.36,67.528 166.972,67.528 166.736,65.494 				"/>
				<polygon fill="#4A80BE" points="68.172,75.089 68.391,77.127 144.74,77.127 144.508,75.089 				"/>
				<polygon fill="#FF4343" points="69.203,84.701 69.423,86.741 160.151,86.741 159.916,84.701 				"/>
				<polygon fill="#4A80BE" points="94.737,94.328 94.961,96.372 170.318,96.372 170.081,94.328 				"/>
				<polygon fill="#4A80BE" points="77.995,103.972 78.216,106.019 171.438,106.019 171.2,103.972 				"/>
				<polygon fill="#4A80BE" points="72.309,113.632 72.529,115.683 172.559,115.683 172.321,113.632 				"/>
				<polygon fill="#FF4343" points="99.791,123.308 100.016,125.362 173.681,125.362 173.443,123.308 				"/>
				<polygon fill="#4A80BE" points="74.387,133 74.608,135.058 154.416,135.058 154.181,133 				"/>
			</g>
		</g>
		<polygon fill="#D9E9FF" points="192.502,207.2 83.864,217.27 70.995,76.11 101.154,61.039 176.278,63.411 		"/>
	</g>
	<g>
		<g>
			<path fill="#FF9200" d="M70.937,243.595c5.244,2.112,10.048,0.627,15.015-1.544c4.46-1.957,6.703-1.228,10.359,1.623
				c3.561,2.779,9.205,2.259,11.956-1.473c1.022-1.381,1.482-2.949,1.499-4.536c0.009-0.255-0.005-0.508-0.026-0.764
				c-0.145-1.911-0.919-3.799-2.114-5.353c-2.411-3.112-6.278-2.935-9.949-3.054c-0.24-0.009-0.481-0.017-0.712-0.029
				c-0.276-0.012-0.542-0.028-0.812-0.052c-3.404-0.275-7.093-1.243-9.024-4.056c-1.821-2.658-1.555-6.156-2.081-9.338
				c-0.74-4.514-3.261-8.709-6.898-11.483c-3.635-2.766-8.348-4.084-12.897-3.6c-1.344,0.141-2.695,0.435-4.041,0.761
				c-0.266,0.067-0.54,0.137-0.806,0.204c-3.711,0.936-7.393,1.984-10.935,0.781c-3.712-1.262-6.197-4.726-8.072-8.163
				c-1.872-3.443-3.471-7.179-6.378-9.804c-3.625-3.288-8.992-4.188-13.704-2.848c-0.21,0.06-0.42,0.119-0.63,0.193
				c-1.417,0.459-2.762,1.134-3.966,2.004c-5.354,3.866-7.827,11.079-6.596,17.568c0.011,0.05,0.018,0.106,0.034,0.159
				c0.049,0.271,0.113,0.543,0.183,0.817c1.49,6.069,5.944,11.267,11.513,14.152c5.858,3.039,12.814,3.645,19.289,2.356
				c3.822-0.766,8.006-2.119,11.433-0.25c2.147,1.175,3.49,3.402,4.339,5.709c0.055,0.133,0.102,0.27,0.149,0.406
				c0.039,0.109,0.074,0.225,0.109,0.34c0.774,2.349,1.206,4.812,2.158,7.092C61.535,236.665,65.565,241.43,70.937,243.595z"/>
			<path fill="#FF6D00" d="M89.837,234.554c4.553,0.907,9.244,0.476,13.823,1.195c2.076,0.328,4.216,0.928,6.105,1.915
				c0.009-0.255-0.005-0.508-0.026-0.764c-2.451-1.203-5.243-1.777-7.91-2.026c-0.855-0.082-1.719-0.132-2.587-0.176
				c-0.217-0.011-0.443-0.019-0.665-0.033c-3.518-0.157-7.059-0.201-10.451-1.197c-3.795-1.106-7.205-3.412-9.775-6.407
				c-1.325-1.534-2.428-3.277-3.241-5.134c-0.771-1.753-1.206-3.594-1.566-5.463c-0.642-3.34-1.264-7.308-4.449-9.212
				c-1.16-0.697-2.418-0.985-3.72-1.036c-0.193-0.013-0.393-0.015-0.59-0.008c-2.472,0.026-5.063,0.783-7.388,1.065
				c-8.591,1.036-17.579-1.449-24.337-6.866c-6.067-4.858-10.304-11.908-11.745-19.54c-0.21,0.06-0.42,0.119-0.63,0.193
				c0.083,0.445,0.175,0.888,0.282,1.33c1.851,7.894,6.649,15.049,13.279,19.714c2.921,2.053,6.185,3.613,9.606,4.64
				c0.458,0.131,0.909,0.259,1.37,0.37c4.332,1.101,8.886,1.347,13.299,0.657c3.788-0.591,8.602-2.137,11.614,1.16
				c1.241,1.356,1.811,3.195,2.221,4.942c0.429,1.838,0.674,3.714,1.171,5.536c0.575,2.109,1.493,4.088,2.683,5.892
				c0.113,0.179,0.235,0.355,0.357,0.531C79.686,230.257,84.478,233.488,89.837,234.554z"/>
			<path fill="#FF6D00" d="M10.34,201.608c0.238,0.126,0.478,0.246,0.722,0.361c5.231,2.543,10.835,4.296,16.58,5.196
				c5.739,0.897,11.613,0.937,17.359,0.07c0.097-0.015,0.172-0.058,0.22-0.121c0.16-0.205,0.072-0.571-0.249-0.525
				c-0.371,0.056-0.748,0.108-1.122,0.155c-2.832,0.37-5.682,0.522-8.542,0.454c-5.731-0.128-11.436-1.132-16.883-2.929
				c-2.836-0.939-5.605-2.103-8.269-3.478C10.206,201.062,10.27,201.334,10.34,201.608z"/>
			<path fill="#FF6D00" d="M65.375,206.216c0.037-0.084,0.042-0.178-0.008-0.279c-0.967-2.042-2.406-3.837-4.157-5.241
				c-0.266,0.067-0.54,0.137-0.806,0.204c1.851,1.382,3.36,3.2,4.381,5.307c0.008,0.027,0.019,0.047,0.031,0.068
				C64.944,206.552,65.278,206.439,65.375,206.216z"/>
			<path fill="#FF6D00" d="M57.172,224.321c6.212,1.756,12.752,2.305,19.171,1.625c0.097-0.015,0.168-0.052,0.223-0.112
				c0.163-0.196,0.075-0.576-0.248-0.54c-0.038,0.002-0.071,0.007-0.109,0.009c-1.848,0.194-3.696,0.291-5.544,0.276
				c-4.648-0.029-9.292-0.709-13.751-2.003c0.055,0.133,0.102,0.27,0.149,0.406C57.102,224.09,57.137,224.205,57.172,224.321z"/>
			<path fill="#FF6D00" d="M99.254,234.802c-0.005-0.032-0.007-0.071-0.012-0.103c-0.24-2.139-0.768-4.224-1.566-6.206
				c-0.24-0.009-0.481-0.017-0.712-0.029c0.825,1.974,1.376,4.071,1.613,6.201c0.016,0.053,0.018,0.106,0.025,0.162
				C98.651,235.24,99.3,235.22,99.254,234.802z"/>
		</g>
		<g>
			<path fill="#FFC600" d="M49.99,207.778c2.15,2.698,5.818,3.762,9.265,3.734c3.44-0.024,6.8-0.98,10.194-1.603
				c3.387-0.619,6.988-0.892,10.191,0.384c3.459,1.37,5.982,4.345,8.378,7.197c2.389,2.855,4.96,5.803,8.448,7.101
				c3.844,1.423,6.662,0.425,8.308-1.71c0.154-0.2,0.299-0.413,0.437-0.64c1.648-2.698,1.71-6.743-0.023-10.113
				c-1.474-2.872-3.449-5.655-3.66-8.875c-0.284-4.383,2.738-8.176,4.737-12.089c2.606-5.107,3.588-11.028,2.754-16.708
				c-0.367-2.548-1.153-5.147-2.923-7.018c-1.528-1.616-3.926-2.526-6.022-2.01c-0.248,0.056-0.497,0.14-0.741,0.249
				c-0.088,0.034-0.173,0.075-0.258,0.116c-2.643,1.339-3.462,4.779-3.158,7.727c0.311,2.944,1.44,5.784,1.461,8.745
				c0.028,2.957-1.542,6.308-4.452,6.843c-1.895,0.352-3.868-0.638-5.033-2.16c-1.175-1.525-1.627-3.497-1.659-5.419
				c-0.053-3.595,1.265-7.05,2.674-10.351c1.416-3.304,2.975-6.612,3.453-10.168c0.478-3.556-0.306-7.498-2.952-9.93
				c-1.279-1.165-3.043-1.816-4.766-1.847c-0.263-0.016-0.529-0.004-0.786,0.021c-1.571,0.133-3.052,0.801-4.03,2.06
				c-1.394,1.795-1.512,4.259-1.306,6.521c0.2,2.266,0.667,4.555,0.227,6.783c-0.44,2.228-2.109,4.431-4.379,4.579
				c-1.954,0.114-3.728-1.365-4.553-3.142c-0.826-1.778-0.882-3.802-0.882-5.761c0.021-4.328,0.3-8.709-0.53-12.96
				c-0.837-4.246-2.967-8.47-6.685-10.692c-1.589-0.954-3.504-1.416-5.371-1.353c-0.262,0.001-0.519,0.026-0.776,0.052
				c-2.197,0.24-4.256,1.233-5.563,3.022c-2.626,3.604-1.409,8.659,0.361,12.751c2.282,5.276,5.326,10.219,9.008,14.63
				c1.098,1.318,2.274,2.615,2.953,4.19c0.685,1.571,0.789,3.522-0.21,4.912c-1.372,1.909-4.261,2.052-6.429,1.132
				c-2.163-0.913-3.877-2.627-5.814-3.955c-1.931-1.332-4.4-2.317-6.607-1.527c-0.678,0.248-1.269,0.643-1.754,1.156
				c-0.183,0.181-0.341,0.374-0.49,0.581c-0.898,1.239-1.313,2.881-1.103,4.415c0.339,2.501,2.031,4.654,4.087,6.121
				c2.056,1.466,4.468,2.34,6.841,3.193c5.669,2.056,11.341,4.101,17.012,6.146c2.319,0.839,4.98,2.056,5.436,4.479
				c0.557,2.916-2.763,5.317-5.726,5.213c-2.97-0.1-5.606-1.766-8.315-2.973c-2.709-1.206-6.064-1.912-8.505-0.231
				c-0.297,0.203-0.56,0.431-0.793,0.696c-0.179,0.188-0.34,0.391-0.485,0.605C47.97,202.147,48.235,205.58,49.99,207.778z"/>
			<path fill="#FF6D00" d="M78.782,193.856c1.595,2.356,3.263,4.668,5.001,6.93c0.166,0.219,0.336,0.445,0.509,0.66
				c2.531,3.279,5.212,6.443,8.02,9.485c3.904,4.234,8.067,8.233,12.462,11.95c0.154-0.2,0.299-0.413,0.437-0.64
				c-4.987-4.227-9.668-8.808-14.016-13.686c-1.065-1.201-2.116-2.41-3.138-3.645c-0.171-0.198-0.336-0.399-0.501-0.601
				c-3.43-4.17-6.634-8.538-9.575-13.061c-1.143-1.762-2.253-3.544-3.318-5.343c-0.143-0.242-0.282-0.477-0.419-0.722
				c-2.44-4.167-4.666-8.461-6.678-12.854c-3.023-6.605-5.555-13.438-7.542-20.421c-1.563-5.457-2.794-11.011-3.676-16.618
				c-0.262,0.001-0.519,0.026-0.776,0.052c1.018,6.496,2.508,12.931,4.427,19.219c2.118,6.96,4.769,13.749,7.901,20.308
				c1.097,2.297,2.259,4.565,3.474,6.801c0.126,0.243,0.262,0.489,0.398,0.734C73.934,186.328,76.276,190.145,78.782,193.856z"/>
			<path fill="#FF6D00" d="M87.949,205.019c0.032-0.037,0.075-0.072,0.108-0.109c2.424-2.414,4.561-5.113,6.355-8.024
				c3.243-5.257,5.371-11.186,6.149-17.313c0.603-4.709,0.433-9.495-0.488-14.145c-0.248,0.056-0.497,0.14-0.741,0.249
				c0.382,1.932,0.63,3.897,0.746,5.868c0.337,6.065-0.607,12.173-2.795,17.848c-2.153,5.581-5.5,10.692-9.726,14.917
				c-0.055,0.06-0.104,0.116-0.163,0.169C87.041,204.832,87.597,205.373,87.949,205.019z"/>
			<path fill="#FF6D00" d="M49.475,199.896c1.591,0.971,3.277,1.768,5.03,2.416c9.651,3.56,20.188,2.062,29.787-0.866l0.007-0.004
				c0.476-0.146,0.269-0.893-0.207-0.748c-0.099,0.032-0.205,0.067-0.308,0.092c-2.698,0.818-5.439,1.517-8.216,2.018
				c-8.619,1.568-18,1.067-25.607-3.513C49.781,199.479,49.62,199.683,49.475,199.896z"/>
			<path fill="#FF6D00" d="M74.628,185.953c0.009-0.015,0.026-0.033,0.035-0.048c1.905-2.479,3.588-5.117,5.024-7.898
				c2.564-4.964,4.344-10.333,5.228-15.852c0.683-4.267,0.833-8.744-0.272-12.922c-0.263-0.016-0.529-0.004-0.786,0.021
				c0.523,1.893,0.764,3.863,0.817,5.835c0.128,5.437-1.047,10.956-2.855,16.061c-1.783,5.027-4.345,9.781-7.575,14.033
				c-0.061,0.081-0.119,0.152-0.179,0.233C73.771,185.808,74.327,186.349,74.628,185.953z"/>
			<path fill="#FF6D00" d="M41.026,172.233c0.853,0.737,1.742,1.426,2.66,2.088c2.149,1.547,4.432,2.906,6.704,4.263
				c2.261,1.354,4.566,2.582,7.124,3.288c4.627,1.276,9.525,1.096,14.259,0.532c0.059-0.008,0.118-0.016,0.177-0.023
				c0.489-0.063,0.493-0.836-0.006-0.776c-0.188,0.02-0.382,0.045-0.569,0.065c-2.449,0.29-4.913,0.461-7.382,0.364
				c-2.332-0.079-4.663-0.403-6.891-1.087c-2.496-0.77-4.729-2.077-6.962-3.412c-2.967-1.779-5.993-3.614-8.624-5.882
				C41.334,171.833,41.176,172.026,41.026,172.233z"/>
		</g>
	</g>
	<g>
		<g>
			<polygon fill="#9EC9FF" points="248.231,248.855 124.693,263.004 100.883,256.894 96.77,225.933 90.369,177.733 86.922,151.764 
				84.063,130.233 77.611,81.666 100.568,72.5 145.03,71.792 159.042,71.57 167.832,71.425 203.189,70.862 225.385,70.512 
				233.518,134.022 			"/>
			<polygon fill="#7198D6" points="118.755,88.793 127.292,151.764 222.499,147.285 212.926,86.949 			"/>
			<polygon fill="#7198D6" points="100.57,72.499 124.689,263.007 100.882,256.895 77.611,81.665 			"/>
			<path fill="#D9E9FF" d="M248.231,248.855l-123.538,14.149l-23.81-6.11l-4.113-30.961c7.826-0.794,15.523-3.892,21.975-8.346
				c28.102-1.835,55.522-12.895,77.045-31.064c16.633-14.047,29.664-32.284,37.729-52.501L248.231,248.855z"/>
			<polygon fill="#4A80BE" points="80.903,106.452 103.842,98.347 106.27,117.525 83.26,124.203 			"/>
			<polygon fill="#4A80BE" points="84.294,131.987 107.286,125.545 108.269,133.314 85.217,138.938 			"/>
			<path fill="#FFC600" d="M247.101,230.807l2.47,18.641l-16.006,1.713v-3.359c12.548-1.284,11.264-16.352,11.264-16.352
				L247.101,230.807z"/>
		</g>
		<g>
			<polygon opacity="0.3" fill="#FFFFFF" points="203.189,70.862 112.626,167.757 90.369,177.733 86.922,151.764 108.265,138.937 
				167.832,71.425 			"/>
			<polygon opacity="0.3" fill="#FFFFFF" points="159.042,71.57 108.265,133.313 85.975,142.351 84.063,130.233 106.268,120.12 
				145.03,71.792 			"/>
		</g>
		<path fill="#FFC600" d="M138.978,262.689l-14.558,2.237l-9.024-3.227l0.325-2.686c0,0,5.008-3.135,4.35-12.925l2.33-1.176
			l3.8,0.519c0,0,2.833,12.383,11.725,13.831L138.978,262.689z"/>
		<path fill="#FF9200" d="M99.225,247.439l1.054,10.012l4.841,1.186l-0.296-2.075c-2.931-1.021-4.051-8.958-4.051-8.958
			L99.225,247.439z"/>
		<path fill="#FF9200" d="M124.42,264.926l-9.024-3.227l0.325-2.686c0,0,5.008-3.135,4.35-12.925l2.33-1.176L124.42,264.926z"/>
		<path fill="#FFC600" d="M209.753,69.065l16.797-0.791l2.668,19.596l-3.959-1.196c-1.581-12.054-14.682-13.953-14.682-13.953
			L209.753,69.065z"/>
		<path fill="#FFC600" d="M116.483,70.512v2.876c0,0-11.009,0.29-12.605,9.003l-1.912,1.118l-1.391-0.572
			c0,0-3.704-6.938-9.191-5.632l-1.016-1.852l9.917-4.941H116.483z"/>
		<path fill="#FF9200" d="M101.967,83.509l-1.391-0.572c0,0-3.704-6.938-9.191-5.632l-1.016-1.852l9.917-4.941L101.967,83.509z"/>
		<path fill="#FF9200" d="M81.51,79.214l-4.448,2.07l1.062,6.655l1.162-0.59c-0.699-4.194,2.437-6.72,2.437-6.72L81.51,79.214z"/>
	</g>
	<g>
		<g>
			<polygon fill="#FFFFFF" points="318.612,223.073 297.182,225.056 198.792,234.186 194.599,198.814 185.903,125.354 
				177.848,57.306 299.991,58.009 316.949,208.336 			"/>
			<g>
				<g>
					<path fill="#9EC9FF" d="M239.18,110.573l-42.58,0.754c-1.327,0.023-2.533-1.056-2.687-2.407l-4.254-37.201
						c-0.155-1.358,0.804-2.461,2.137-2.459l42.783,0.049c1.281,0.002,2.443,1.084,2.591,2.413l4.055,36.413
						C241.371,109.456,240.455,110.55,239.18,110.573z M191.868,69.898c-0.986-0.001-1.696,0.816-1.581,1.82l4.251,37.191
						c0.114,0.999,1.007,1.799,1.989,1.782l42.583-0.742c0.944-0.016,1.622-0.826,1.513-1.805l-4.057-36.423
						c-0.11-0.984-0.97-1.785-1.918-1.786L191.868,69.898z"/>
					<g>
						<path fill="#9EC9FF" d="M235.243,105.974l-6.581,0.103l-3.598-32.084l6.605-0.006L235.243,105.974z M229.199,105.44
							l5.371-0.082l-3.436-30.744l-5.39,0.007L229.199,105.44z"/>
						<path fill="#9EC9FF" d="M225.698,106.122l-6.639,0.103l-2.195-19.465l6.654-0.045L225.698,106.122z M219.6,105.586
							l5.418-0.083l-2.04-18.154l-5.43,0.038L219.6,105.586z"/>
						<path fill="#9EC9FF" d="M216.069,106.272l-6.697,0.104l-3.669-32.366l6.722-0.007L216.069,106.272z M209.918,105.735
							l5.465-0.084l-3.503-31.013l-5.485,0.007L209.918,105.735z"/>
						<path fill="#9EC9FF" d="M206.355,106.424l-6.756,0.105l-2.659-23.33l6.774-0.035L206.355,106.424z M200.15,105.884
							l5.513-0.084l-2.498-21.997l-5.527,0.03L200.15,105.884z"/>
					</g>
				</g>
				<g>
					<polygon fill="#FF4343" points="243.983,75.056 244.194,76.963 275.956,76.888 275.752,75.009 					"/>
					<polygon fill="#9EC9FF" points="245,84.219 288.011,83.975 287.809,82.108 244.788,82.314 					"/>
					<polygon fill="#4A80BE" points="264.126,91.304 288.78,91.082 288.578,89.216 263.919,89.417 					"/>
					<polygon fill="#9EC9FF" points="246.607,98.712 283.189,98.261 282.986,96.391 246.397,96.81 					"/>
					<polygon fill="#9EC9FF" points="247.41,105.948 273.879,105.534 273.674,103.657 247.2,104.049 					"/>
				</g>
				<polygon fill="#FF4343" points="211.929,116.916 212.113,118.548 291.572,116.872 291.402,115.298 				"/>
				<polygon fill="#9EC9FF" points="196.077,125.106 196.264,126.748 266.929,125.009 266.755,123.418 				"/>
				<polygon fill="#4A80BE" points="209.019,132.617 209.204,134.249 293.197,131.885 293.027,130.315 				"/>
				<polygon fill="#4A80BE" points="292.995,176.16 209.028,179.653 209.237,181.282 293.187,177.728 				"/>
				<polygon fill="#4A80BE" points="302.963,183.315 209.028,188.011 209.237,189.641 303.155,184.883 				"/>
				<polygon fill="#4A80BE" points="292.995,192.877 205.324,198.976 205.533,200.605 293.187,194.445 				"/>
				<g>
					<path fill="#7198D6" d="M228.154,157.558c0.9,7.998-4.682,14.763-12.516,15.12c-7.891,0.36-15.079-5.908-16.005-14.008
						c-0.927-8.109,4.78-14.898,12.697-15.155C220.19,143.261,227.253,149.552,228.154,157.558z"/>
					<path fill="#FF9200" d="M226.314,148.035c-2.217-2.742-5.157-4.797-8.426-5.885l-3.904,15.961l16.315-0.636
						C229.916,154.065,228.526,150.771,226.314,148.035z"/>
				</g>
				<g>
					<path fill="#7198D6" d="M267.337,156.031c0.865,7.856-4.523,14.497-12.08,14.841c-7.61,0.347-14.539-5.813-15.428-13.769
						c-0.89-7.964,4.616-14.627,12.251-14.874C259.662,141.984,266.472,148.167,267.337,156.031z"/>
					<path fill="#FF4343" d="M251.376,139.819c-3.672,0.115-7.103,1.534-9.718,4.025l11.577,12.737l15.965-0.623
						C268.198,146.834,260.18,139.544,251.376,139.819z"/>
				</g>
				<g>
					<path fill="#7198D6" d="M301.591,154.695c0.834,7.732-4.386,14.264-11.705,14.598c-7.369,0.336-14.074-5.73-14.932-13.559
						c-0.859-7.836,4.475-14.39,11.868-14.629C294.164,140.867,300.757,146.955,301.591,154.695z"/>
					<path fill="#FFC600" d="M299.881,145.487c-0.052-0.066-0.109-0.127-0.162-0.193l-11.363,9.917l15.24-0.594
						C303.241,151.32,301.945,148.134,299.881,145.487z"/>
				</g>
			</g>
		</g>
		<path fill="#D9E9FF" d="M316.949,208.336c-5.381-3.821-11.649-7.343-17.536-10.307c-10.906-5.494-20.479-9.078-20.479-9.078
			c-0.041-0.031-0.093-0.041-0.145-0.041c-0.361,0-1.043,0.527-1.88,1.415l-5.68-3.811c3.728-8.303,5.69-18.021,5.277-28.411
			c-1.198-30.559-22.338-55.324-47.217-55.324c-1.343,0-2.664,0.083-3.976,0.227c-1.322-0.145-2.654-0.227-3.997-0.227
			c-14.892,0-27.75,8.882-35.413,22.576l8.696,73.459c8.386,9.068,19.313,14.603,31.065,14.603c1.353,0,2.675-0.083,3.986-0.227
			c1.322,0.145,2.654,0.227,3.997,0.227c13.137,0,24.683-6.909,32.49-17.939l5.05,3.387c-0.589,1.291-0.806,2.189-0.506,2.396
			c0.031,0.031,4.276,4.606,10.524,10.42c4.554,4.234,10.162,9.119,15.977,13.374l21.43-1.983L316.949,208.336z"/>
	</g>
	<g>
		<g>
			<g>
				<path fill="#FF9200" d="M326.209,223.542c-4.974,7.408-14.947,4.44-25.259-1.94c-16.119-9.973-33.084-28.28-33.084-28.28
					l4.127-6.145l4.127-6.158c0,0,9.57,3.581,20.481,9.075C313.645,198.687,333.982,211.955,326.209,223.542z"/>
				<path fill="#FFC600" d="M326.209,223.542c-4.974,7.408-14.947,4.44-25.259-1.94c2.786-5.729,3.594-12.408,2.226-18.632
					c-1.042-4.765-3.346-9.231-6.575-12.877C313.645,198.687,333.982,211.955,326.209,223.542z"/>
				<path fill="#FFC600" d="M276.117,181.025c0.581,0.39-0.795,3.459-3.073,6.855c-2.278,3.396-4.596,5.834-5.177,5.444
					c-0.581-0.39,0.795-3.459,3.073-6.855C273.219,183.073,275.537,180.636,276.117,181.025z"/>
			</g>
			<path fill="#0E537E" d="M255.575,182.354l13.492,9.05l0,0c0.376,0.252,1.963-1.455,3.545-3.814
				c1.582-2.358,2.559-4.475,2.183-4.727l-13.492-9.05L255.575,182.354z"/>
		</g>
		<g>
			<path fill="#aa076b" d="M265.716,150.168c-1.203-30.553-22.342-55.321-47.216-55.321c-24.874,0-44.064,24.768-42.861,55.321
				c1.203,30.553,22.342,55.321,47.216,55.321C247.729,205.489,266.918,180.721,265.716,150.168z M222.469,196.633
				c-20.469,0-37.864-20.803-38.854-46.465c-0.99-25.662,14.801-46.465,35.27-46.465c20.469,0,37.864,20.803,38.854,46.465
				C258.729,175.83,242.938,196.633,222.469,196.633z"/>
			
				<ellipse transform="matrix(0.9945 -0.1047 0.1047 0.9945 -14.4644 24.7627)" opacity="0.5" fill="#FFFFFF" cx="228.655" cy="150.168" rx="36.987" ry="46.56"/>
			<path fill="#264FF9" d="M273.694,150.168c-1.203-30.553-22.342-55.321-47.216-55.321c-24.874,0-44.064,24.768-42.861,55.321
				s22.342,55.321,47.216,55.321C255.707,205.489,274.897,180.721,273.694,150.168z M230.447,196.633
				c-20.469,0-37.864-20.803-38.854-46.465c-0.99-25.662,14.801-46.465,35.27-46.465c20.469,0,37.864,20.803,38.854,46.465
				C266.707,175.83,250.916,196.633,230.447,196.633z"/>
		</g>
	</g>
	<g>
		<path fill="#FF9200" d="M350.136,56.633l-0.2-3.771l-3.776-0.051c-14.003-0.188-29.279-8.39-29.428-8.471l-1.508-0.821
			l-1.638,0.517c-0.178,0.056-17.939,5.613-32.36,5.568l-3.72-0.011l-0.314,3.706c-0.044,0.526-1.05,13.036,2.69,27.475
			c5.067,19.562,16.453,33.194,32.926,39.422l1.322,0.5l1.345-0.434c15.448-4.982,26.344-17.686,31.51-36.738
			C350.771,69.556,350.164,57.154,350.136,56.633z"/>
		<g>
			<path fill="#7198D6" d="M314.801,47.885l-0.566,68.536c-37.16-14.05-33.022-62.78-33.022-62.78
				C296.43,53.688,314.801,47.885,314.801,47.885z"/>
			<path fill="#4A80BE" d="M314.801,47.885l-0.566,68.536c34.448-11.11,31.871-59.574,31.871-59.574
				C330.89,56.643,314.801,47.885,314.801,47.885z"/>
		</g>
		<polygon fill="#FFFFFF" points="300.86,71.905 314.489,85.588 331.322,65.028 338.569,71.53 314.532,90.828 297.033,77.714 		"/>
	</g>
</g>
</svg>
