<?xml version="1.0" encoding="utf-8"?>
<!-- Generator: Adobe Illustrator 25.4.1, SVG Export Plug-In . SVG Version: 6.00 Build 0)  -->
<svg version="1.1" id="Layer_1" xmlns="http://www.w3.org/2000/svg" xmlns:xlink="http://www.w3.org/1999/xlink" x="0px" y="0px"
	 viewBox="0 0 403 275" enable-background="new 0 0 403 275" xml:space="preserve">
<g>
	<g opacity="0.12">
		<linearGradient id="SVGID_1_" gradientUnits="userSpaceOnUse" x1="7.8556" y1="246.4709" x2="395.1443" y2="246.4709">
			<stop  offset="0" style="stop-color:#010101"/>
			<stop  offset="1" style="stop-color:#010101;stop-opacity:0.7"/>
		</linearGradient>
		<ellipse fill="url(#SVGID_1_)" cx="201.5" cy="246.471" rx="193.644" ry="20.429"/>
	</g>
	<g>
		<g>
			<g>
				<path fill="#FCBDB6" d="M207.343,118.661c0.774-1.392,2.886,2.955,2.886,2.955s-1.577-3.437-1.062-4.708
					c0.41-1.012,2.38,1.887,3.165,3.109c0.011-0.007,0.022-0.015,0.033-0.022c-0.663-1.259-2.176-4.359-1.474-5.195
					c0.796-0.948,3.084,3.286,3.495,4.048c0.004-0.002,0.009-0.004,0.013-0.006c-3.343-7.832,0.971-3.407,2.828,0.197
					c0.327-0.809,3.478-2.573,3.993-2.432c0.593,0.161-0.761,2.738-1.013,3.299c-0.613,1.368-0.3,2.758,0.645,4.02
					c0.368,0.492-7.501,4.092-7.501,4.092s-1.494-1.216-3.209-3.549c-0.117-0.116-0.23-0.254-0.336-0.424
					c-0.126-0.202-0.3-0.469-0.494-0.773c-0.001-0.001-0.001-0.002-0.002-0.003c0,0,0,0,0,0
					C208.374,121.809,206.907,119.447,207.343,118.661z"/>
			</g>
			<g>
				<path fill="#F9A6A0" d="M215.083,124.856c-0.041,0-0.081-0.021-0.103-0.06c-0.007-0.012-0.661-1.182,0.185-2.132
					c0.775-0.87,1.346-2.341,1.352-2.356c0.024-0.061,0.093-0.091,0.153-0.068c0.061,0.023,0.092,0.092,0.068,0.153
					c-0.024,0.062-0.592,1.526-1.396,2.429c-0.734,0.824-0.162,1.846-0.156,1.856c0.032,0.057,0.013,0.129-0.044,0.162
					C215.123,124.851,215.103,124.856,215.083,124.856z"/>
			</g>
		</g>
		<g>
			<path fill="#222230" d="M237.287,115.49c0,0-7.627,14.416-9.925,12.525c-2.298-1.89-5.993-6.177-5.993-6.177
				s-8.34,3.521-9.215,7.022c0,0,7.189,14.771,18.839,14.625c11.65-0.146,13.825-24.401,13.825-24.401L237.287,115.49z"/>
		</g>
		<g>
			<path fill="#FCBDB6" d="M300.024,162.937c-0.991-3.388-2.199-5.405-2.199-5.405s-7.474,0.043-7.837,0.699
				c-0.835,1.514-1.805,4.871-2.61,6.401c-0.349,0.663-1.37,2.975-0.755,3.408c0.535,0.376,2.221-1.078,2.94-1.866
				c0.617,4.901,3.722,11.775,3.178,1.41c0.006,0,0.011-0.001,0.017-0.001c0.152,1.043,1,6.845,2.318,6.095
				c1.163-0.662,0.729-4.841,0.497-6.56c0.016-0.004,0.032-0.008,0.047-0.012c0.388,1.726,1.433,5.868,2.334,4.883
				c1.131-1.237,0.766-5.829,0.766-5.829s0.597,5.857,2.077,4.59c1.01-0.864-0.216-5.541-0.565-7.186
				C300.182,163.325,300.111,163.119,300.024,162.937z"/>
		</g>
		<g>
			<path fill="#333333" d="M283.291,158.004c-0.044,1.692-10.354,2.364-23.106,1.969c-12.752-0.395-22.942-2.145-22.898-3.837
				c0.044-1.692,10.304-2.685,23.056-2.291C273.095,154.241,283.335,156.312,283.291,158.004z"/>
		</g>
		<g>
			<path fill="#222230" d="M280.17,110.1c0,0-2.255-8.869-18.892-8.959c-23.992-0.13-21.771,21.748-23.991,54.995
				c0,0,14.546-6.026,46.004,1.868C283.291,158.004,285.38,123.652,280.17,110.1z"/>
		</g>
		<g>
			<path fill="#222230" d="M286.311,108.828l-10.866,5.966c0,0-24.311,5.322-30.626,4.29c-6.316-1.033-7.531-3.594-7.531-3.594
				s6.727-12.127,18.161-13.971c1.074-0.175,2.188-0.303,3.344-0.378c1.939-0.124,3.881-0.098,5.78,0.114
				C279.063,102.877,286.311,108.828,286.311,108.828z"/>
		</g>
		<g>
			<path fill="#FCBDB6" d="M263.565,99.111l-1.256-4.022l-0.365-1.171l-2.149-6.885l-0.283,6.849l-0.169,4.111l-0.054,1.301
				c-0.036,0.883-0.579,1.069-1.239,1.837c-0.268,0.311-1.979,2.197-0.036,3.049c2.42,1.061,6.945-0.546,8.665-2.651
				C266.665,101.526,263.971,100.411,263.565,99.111z"/>
		</g>
		<g>
			<g>
				<path fill="#FCBDB6" d="M289.52,160.923c-1-10.929-3.295-26.553-8.547-38.928c-1.217-2.867-1.724-3.944-2.673-5.509
					c-0.764-1.26,0.604-4.029,2.761-5.349c2.025-1.239,5.177-1.036,5.676-0.423c0.848,1.043,1.753,3.042,3.162,6.215
					c4.894,11.026,7.826,25.269,9.014,43.633L289.52,160.923z"/>
			</g>
		</g>
		<g>
			<path fill="#5C305D" d="M254.264,84.448c0,0-0.438,1.667,0,3.756c0.438,2.09,2.58-3.047,2.58-3.047L254.264,84.448z"/>
		</g>
		<g>
			<path fill="#FCBDB6" d="M254.009,88.806c0.534-4.04,3.705-6.959,7.081-6.519c3.376,0.44,5.68,4.072,5.146,8.112
				c-0.535,4.04-3.705,6.959-7.081,6.519S253.474,92.847,254.009,88.806z"/>
		</g>
		<g>
			<g>
				<path fill="#080435" d="M259.798,89.294c-0.032-0.02-0.055-0.054-0.058-0.095c-0.006-0.068,0.045-0.128,0.114-0.134
					c0.04-0.003,0.972-0.169,1.441,0.814c0.03,0.062,0.006,0.136-0.056,0.166c-0.062,0.031-0.124-0.002-0.168-0.056
					c-0.435-0.533-1.162-0.68-1.196-0.677C259.847,89.315,259.82,89.308,259.798,89.294z"/>
			</g>
		</g>
		<g>
			<path fill="#080435" d="M260.34,90.885c-0.078,0.286-0.311,0.471-0.52,0.415c-0.209-0.057-0.314-0.334-0.236-0.619
				c0.078-0.286,0.311-0.471,0.52-0.415C260.313,90.322,260.418,90.599,260.34,90.885z"/>
		</g>
		<g>
			<g>
				<path fill="#080435" d="M255.174,88.925c-0.029-0.005-0.054-0.027-0.068-0.062c-0.022-0.059,0-0.134,0.049-0.168
					c0.029-0.02,0.67-0.551,1.274,0.144c0.038,0.044,0.04,0.12,0.003,0.173c-0.037,0.053-0.092,0.049-0.138,0.019
					c-0.461-0.303-1.034-0.137-1.058-0.121C255.215,88.924,255.194,88.929,255.174,88.925z"/>
			</g>
		</g>
		<g>
			<path fill="#080435" d="M256.314,90.197c0.037,0.294-0.107,0.553-0.322,0.58c-0.215,0.027-0.419-0.19-0.456-0.483
				s0.107-0.553,0.322-0.58C256.073,89.687,256.277,89.903,256.314,90.197z"/>
		</g>
		<g>
			<path fill="#501506" d="M270.343,88.483c0,0-2.061,4.414-4.984,4.738c0,0,2.363-3.364-2.618-5.414
				C262.741,87.807,267.315,87.093,270.343,88.483z"/>
		</g>
		<g>
			<path fill="#FCBDB6" d="M266.222,90.919c-0.625,0.395-1.42,0.265-1.775-0.289c-0.355-0.554-0.137-1.324,0.488-1.718
				c0.625-0.395,1.42-0.265,1.775,0.289C267.066,89.755,266.847,90.524,266.222,90.919z"/>
		</g>
		<g>
			<path fill="#501506" d="M262.741,87.807c0,0,0.399,3.704-0.361,4.404c-0.76,0.7-5.776,1.001-8.117,0.104l0,0
				c-0.039,2.379,1.651,4.479,4.015,4.873c0.782,0.13,1.591,0.131,2.395-0.008l0,0c1.639-0.284,3.232-0.957,3.908-2.466
				c0.206-0.459-0.393-3.283-0.393-3.283s-0.225-1.657,0.747-2.52C264.935,88.911,263.814,87.911,262.741,87.807z"/>
		</g>
		<g>
			<path fill="#501506" d="M262.741,87.807c0,0,0.412-2.59-1.634-2.775c-2.046-0.185-4.38-0.526-5.182,0s-1.762,2.591-1.762,2.591
				s-1.122-3.883,0.934-5.545c2.057-1.661,8.613-3.847,12.799-0.955c4.185,2.893,2.446,7.359,2.446,7.359
				S267.353,87.579,262.741,87.807z"/>
		</g>
		<g>
			<path fill="#501506" d="M265.579,81.124c0,0,3.085-2.528,2.387-4.398c-0.698-1.87-3.963-1.278-5.225-0.985
				c-1.262,0.292-1.476,2.529-0.462,3.972C263.293,81.156,265.579,81.124,265.579,81.124z"/>
		</g>
		<g>
			<path fill="#333333" d="M260.829,239.534c-1.48-0.08-2.854,0.681-3.58,1.963c-0.341,0.603-0.839,1.15-1.563,1.45
				c-2.227,0.921-8.679,1.753-6.268,3.852c1.383,1.205,7.903,0.426,9.744,0.426c1.841,0,3.569,0.796,4.937-0.427
				c0.819-0.732,0.746-3.05,0.51-5.01c-0.171-1.414-1.456-2.461-2.879-2.28c-0.216,0.027-0.433,0.041-0.648,0.036
				C260.995,239.542,260.911,239.538,260.829,239.534z"/>
		</g>
		<g>
			<path fill="#333333" d="M283.568,238.759c0,0-0.082,3.266-2.309,4.187s-8.679,1.753-6.268,3.852
				c1.383,1.205,7.903,0.426,9.744,0.426c1.841,0,3.569,0.796,4.937-0.427c1.505-1.345,0-8.04,0-8.04s-1.588,0.821-3.017,0.784
				C284.596,239.49,283.568,238.759,283.568,238.759z"/>
		</g>
		<g>
			<path fill="#8AAD3E" d="M244.19,156.604c-1.006,0.106-1.804,0.887-1.926,1.884c-0.242,1.988-0.282,6.188,0.919,14.902
				c1.764,12.802,8.432,59.519,9.54,65.746c0.396,2.227,0.85,3.598,4.103,4.068l4.321-0.084c3.517,0.508,4.872-3.239,4.897-5.636
				l-2.828-71.965l11.243-8.513c0,0-8.415-1.067-17.928-1.06C251.157,155.949,246.471,156.362,244.19,156.604z"/>
		</g>
		<g>
			<path fill="#8AAD3E" d="M254.77,158.992l24.782,79.002c1.037,3.307,4.037,5.573,7.455,5.631l1.49,0.025
				c3.517,0.06,6.205-3.168,5.564-6.679l-13.556-74.233c-0.197-0.882-0.701-4.782-1.558-5.028
				C274.297,156.38,254.313,155.724,254.77,158.992z"/>
		</g>
		<g>
			<path fill="#333333" d="M265.847,194.303l-5.33-16.078c-1.199-3.616-3.663-6.633-6.941-8.496l0.205-0.361
				c3.367,1.914,5.899,5.013,7.13,8.726l5.33,16.078L265.847,194.303z"/>
		</g>
		<g>
			<g>
				<path fill="#F5A714" d="M271.975,103.151c0,0,2.586-2.371-0.524-3.207c-1.229-0.331-3.062-3.343-4.772-3.083
					c-1.71,0.26-2.718,9.815-9.581,12.77c0,0-1.69,1.461,1.061,1.396C260.908,110.962,271.975,103.151,271.975,103.151z"/>
			</g>
			<g>
				<path fill="#F5A714" d="M257.098,109.631c0,0-3.434-3.352-2.835-6.48c0.599-3.128-1.147-5.804-1.998-4.39
					c-0.851,1.414-1.834,0.535-2.03,2.307c-0.196,1.772,2.457,10.479,4.863,10.479C257.503,111.546,257.098,109.631,257.098,109.631
					z"/>
			</g>
			<g>
				<path fill="#F5A714" d="M257.874,110.29c0,0,2.22,0.99,1.397,3.336c-0.823,2.345,0.328,3.292,0.328,3.292
					s-2.69,0.13-3.015-2.383C256.259,112.023,257.874,110.29,257.874,110.29z"/>
			</g>
			<g>
				<path fill="#F5A714" d="M256.614,110.29c0,0-2.819,0.953-2.94,2.773c-0.121,1.82,1.494,2.253,2.061,1.17
					c0.568-1.083,1.746-3.204,1.746-3.204L256.614,110.29z"/>
			</g>
		</g>
		<g>
			<path fill="#501506" d="M264.581,94.714c0,0-0.02,2.547-1.84,3.977c-1.82,1.431-0.616,2.676-2.218,4.707
				c-1.602,2.03,0.305,2.077-2.532,3.553c-2.837,1.477-4.976,0.138-4.418-2.123c0.558-2.261-1.906-1.661-0.744-4.522
				c1.163-2.861,2.009-1.108,1.028-4.153c-0.981-3.046,0.406-3.839,0.406-3.839s1.568,0.107,2.834,0.332
				c1.266,0.225,2.404-0.17,3.288,0.111S264.581,94.714,264.581,94.714z"/>
		</g>
		<g>
			<path fill="#FFFFFF" d="M255.499,93.651c0,0,1.922,0.516,4.022,0.314c0,0-0.308,1.93-2.433,1.545
				C255.852,95.287,255.499,93.651,255.499,93.651z"/>
		</g>
		<g>
			<path fill="#333333" d="M298.914,156.619c0,0-6.477,0.689-9.832,0c0,0-0.436,1.711,0.265,2.493c0,0,7.76,0.583,9.567,0
				C298.914,159.112,300.25,157.827,298.914,156.619z"/>
		</g>
		<g>
			<path fill="#ed3c69" d="M294.705,160.53h0.12c1.274,0,2.317-1.043,2.317-2.317v-0.437c0-1.274-1.043-2.317-2.317-2.317h-0.12
				c-1.274,0-2.317,1.043-2.317,2.317v0.437C292.388,159.487,293.431,160.53,294.705,160.53z"/>
		</g>
		<g>
			<path fill="#222230" d="M286.311,108.828c0,0,5.49,3.224,10.832,24.4c5.341,21.176,1.327,21.56,1.327,21.56
				s-7.205,0.138-9.522-0.683c-2.317-0.82-3.557-19.796-8.178-27.513C276.149,118.875,274.496,107.058,286.311,108.828z"/>
		</g>
		<g>
			<path fill="#F5A714" d="M256.541,123.991c0-0.448-0.366-0.812-0.818-0.812s-0.818,0.363-0.818,0.812s0.366,0.812,0.818,0.812
				S256.541,124.439,256.541,123.991z"/>
		</g>
		<g>
			<path fill="#F5A714" d="M256.541,133.882c0-0.448-0.366-0.812-0.818-0.812s-0.818,0.363-0.818,0.812
				c0,0.448,0.366,0.812,0.818,0.812S256.541,134.33,256.541,133.882z"/>
		</g>
		<g>
			<path fill="#F5A714" d="M256.541,145.605c0-0.448-0.366-0.812-0.818-0.812s-0.818,0.363-0.818,0.812s0.366,0.812,0.818,0.812
				S256.541,146.054,256.541,145.605z"/>
		</g>
		<g>
			<g>
				<g>
					<path fill="#ed3c69" d="M220.18,84.826c0,0,9.642-6.877,11.587-6.152c2.15,0.801,9.946,12.521,12.118,21.165
						c1.223,4.868-0.267,5.901-2.715,6.758l-10.76,3.769L220.18,84.826z"/>
				</g>
			</g>
			<g>
				<g>
					<path fill="#F5A714" d="M221.451,84.682c-1.075-0.137-8.568,1.521-13.776-1.527c-5.617-3.287-9.044-11.412-12.769-8.839
						c-3.612,2.495,3.504,16.993,3.937,17.867c0.011,0.023,0.002,0.05-0.022,0.06c-0.825,0.375-11.418,5.493-13.435,8.907
						c-2.248,3.803,1.944,6.21,1.944,6.21c-0.939,0.819-3.955,5.448,3.105,7.762c0.034,0.011,0.048,0.049,0.04,0.084
						c-0.264,1.112-2.047,6.42,5.76,6.103c0,0-0.549,5.622,4.91,4.84c5.459-0.782,28.175-13.442,29.265-15.704
						C233.053,104.962,226.12,85.278,221.451,84.682z"/>
				</g>
			</g>
		</g>
		<g>
			<path fill="#333333" d="M238.34,139.408l-0.218-0.012c0.347-6.494,2.424-18.048,2.445-18.164l0.215,0.039
				C240.761,121.387,238.686,132.927,238.34,139.408z"/>
		</g>
		<g>
			<path fill="#333333" d="M283.423,133.094c-0.919-3.986-3.65-9.81-3.678-9.869l0.198-0.093c0.028,0.059,2.769,5.904,3.693,9.913
				L283.423,133.094z"/>
		</g>
	</g>
	<g>
		<g>
			<path fill="#FCBDB6" d="M79.724,108.508c5.239,2.514,10.929,14.914,10.929,14.914s-6.455,3.282-6.784,3.392
				c-0.328,0.109-12.911-13.316-12.911-13.316S77.451,107.417,79.724,108.508z"/>
		</g>
		<g>
			<g>
				<path fill="#333333" d="M65.455,234.814c0,0,0.161,3.094,2.28,3.911s8.21,1.441,5.996,3.493
					c-1.271,1.177-7.424,0.605-9.156,0.651c-1.732,0.047-3.337,0.845-4.656-0.279c-1.45-1.237-0.206-7.621-0.206-7.621
					s1.515,0.738,2.858,0.667C64.507,235.533,65.455,234.814,65.455,234.814z"/>
			</g>
			<g>
				<path fill="#BF8856" d="M81.01,140.889c0,0,0.795,13.961-2.942,40.886c-2.697,19.438-5.972,39.04-7.584,48.438
					c-0.577,3.362-3.323,5.883-6.653,6.107l-1.789,0.12c-3.6,0.242-6.609-2.775-6.445-6.463l2.818-63.368l0.553-20.847
					L81.01,140.889z"/>
			</g>
			<g>
				<path fill="#333333" d="M45.613,235.349c0,0,0.161,3.094,2.28,3.911c2.119,0.817,8.21,1.441,5.996,3.493
					c-1.271,1.177-7.424,0.605-9.156,0.652c-1.732,0.047-3.337,0.845-4.656-0.279c-1.45-1.237-0.206-7.621-0.206-7.621
					s1.515,0.738,2.858,0.667C44.665,236.068,45.613,235.349,45.613,235.349z"/>
			</g>
			<g>
				<path fill="#BF8856" d="M61.169,141.424c0,0,0.795,13.961-2.942,40.886c-2.697,19.438-5.972,39.04-7.584,48.439
					c-0.577,3.362-3.323,5.883-6.653,6.107l-1.789,0.12c-3.6,0.242-6.609-2.775-6.445-6.463l2.818-63.368l0.553-20.846
					L61.169,141.424z"/>
			</g>
			<g>
				<path fill="#333333" d="M37.234,157.394c0.089,1.685,10.301,2.079,22.898,1.346c12.597-0.733,22.625-2.748,22.537-4.433
					c-0.089-1.685-10.26-2.401-22.858-1.668C47.214,153.373,37.145,155.709,37.234,157.394z"/>
			</g>
			<g>
				<path fill="#B2BBCE" d="M39.033,109.584c0,0,1.991-8.896,18.438-9.43c23.718-0.769,22.109,21.087,25.197,54.152
					c0,0-23.455-2.674-45.458,2.673C37.211,156.98,34.246,123.225,39.033,109.584z"/>
			</g>
			<g>
				<path fill="#8C97AA" d="M32.927,108.481l10.904,5.655c0,0,23.581,1.502,29.798,0.305c6.217-1.197,7.807-5.829,7.807-5.829
					s-6.837-6.702-18.191-8.235c-1.067-0.145-2.172-0.243-3.316-0.287c-1.921-0.072-3.84,0.006-5.711,0.268
					C39.933,102.358,32.927,108.481,32.927,108.481z"/>
			</g>
			<g>
				<path fill="#FCBDB6" d="M55.155,98.193l1.134-4.041l0.33-1.176l1.94-6.917l0.464,6.816l0.278,4.091l0.088,1.295
					c0.06,0.879,0.601,1.05,1.275,1.797c0.273,0.303,2.016,2.136,0.118,3.036c-2.365,1.122-6.881-0.358-8.639-2.41
					C52.155,100.681,54.789,99.499,55.155,98.193z"/>
			</g>
			<g>
				<path fill="#B2BBCE" d="M80.72,155.724c0,0-13.769-3.651-41.913,2.629l-0.108,4.076l41.514,0.347L80.72,155.724z"/>
			</g>
			<g>
				<path fill="#333333" d="M32.71,108.735c-0.871,1.316,1.11,4.218,4.426,6.481c3.316,2.263,6.71,3.03,7.582,1.714
					c0.872-1.316-1.11-4.218-4.426-6.481C36.977,108.185,33.582,107.418,32.71,108.735z"/>
			</g>
			<g>
				<g>
					<path fill="#501506" d="M62.568,82.217c0,0,0.759,1.54,0.753,3.667c-0.005,2.127-3.111-2.461-3.111-2.461L62.568,82.217z"/>
				</g>
				<g>
					
						<ellipse transform="matrix(0.945 -0.3271 0.3271 0.945 -25.7317 23.8081)" fill="#FCBDB6" cx="57.926" cy="88.416" rx="6.098" ry="7.353"/>
				</g>
				<g>
					<path fill="#501506" d="M51.59,88.379l2.83-0.894c0.622-0.197,1.134-0.658,1.367-1.267c0.402-1.049,1.017-1.672,3.735-2.125
						c3.442-0.574,5.279-3.073,5.28-4.936c0.002-1.901-2-2.779-3.537-1.557c-1.537,1.222-1.239-1.062-2.935-0.949
						c-3.17,0.21-3.259,2.705-5.798,3.147c-3.33,0.579-8.741,4.311-4.733,9.559L51.59,88.379z"/>
				</g>
				<g>
					<g>
						<path fill="#080435" d="M58.178,88.05c0.027-0.026,0.042-0.064,0.037-0.104c-0.008-0.068-0.069-0.116-0.137-0.108
							c-0.04,0.005-0.975,0.029-1.233,1.081c-0.016,0.066,0.022,0.134,0.088,0.151c0.066,0.018,0.12-0.027,0.151-0.088
							c0.315-0.607,0.99-0.895,1.023-0.899C58.135,88.08,58.16,88.068,58.178,88.05z"/>
					</g>
				</g>
				<g>
					<path fill="#080435" d="M57.973,89.711c0.133,0.263,0.396,0.398,0.587,0.301c0.191-0.097,0.238-0.388,0.104-0.652
						c-0.133-0.263-0.396-0.398-0.587-0.301C57.886,89.156,57.839,89.448,57.973,89.711z"/>
				</g>
				<g>
					<g>
						<path fill="#080435" d="M62.584,86.77c0.027-0.011,0.047-0.037,0.053-0.074c0.01-0.062-0.026-0.131-0.081-0.154
							c-0.032-0.013-0.76-0.405-1.206,0.394c-0.028,0.05-0.015,0.126,0.032,0.17c0.047,0.044,0.099,0.029,0.137-0.009
							c0.386-0.388,0.975-0.339,1.001-0.328C62.544,86.777,62.566,86.777,62.584,86.77z"/>
					</g>
				</g>
				<g>
					<path fill="#080435" d="M61.735,88.238c0.023,0.294,0.215,0.519,0.428,0.502c0.213-0.017,0.368-0.269,0.345-0.563
						c-0.023-0.294-0.215-0.519-0.428-0.502C61.866,87.692,61.712,87.943,61.735,88.238z"/>
				</g>
				<g>
					<path fill="#501506" d="M47.8,89.357c0,0,2.882,3.899,5.779,3.633c0,0-2.964-2.813,1.45-5.806
						C55.029,87.184,50.454,87.397,47.8,89.357z"/>
				</g>
				<g>
					<path fill="#FCBDB6" d="M52.28,90.915c0.685,0.261,1.429-0.024,1.662-0.636c0.233-0.612-0.133-1.319-0.818-1.58
						c-0.685-0.261-1.429,0.024-1.662,0.636C51.229,89.947,51.595,90.654,52.28,90.915z"/>
				</g>
				<g>
					<path fill="#501506" d="M55.029,87.184c0,0,0.357,3.696,1.233,4.228c0.876,0.532,5.797-0.172,7.885-1.514v0
						c0.515,2.315-0.701,4.701-2.912,5.557c-0.732,0.283-1.515,0.445-2.322,0.469l0,0c-1.645,0.049-3.323-0.291-4.28-1.629
						c-0.291-0.407-0.278-3.283-0.278-3.283s-0.115-1.663-1.229-2.311C53.124,88.699,54.01,87.499,55.029,87.184z"/>
				</g>
				<g>
					<path fill="#501506" d="M60.572,77.421c-0.676,0-0.867-0.602-0.869-0.609l0.159-0.048c0.008,0.026,0.209,0.641,0.99,0.456
						l0.039,0.162C60.774,77.409,60.668,77.421,60.572,77.421z"/>
				</g>
				<g>
					<path fill="#FFFFFF" d="M60.293,82.937l-0.039-0.074c0.009-0.005,0.875-0.465,1.701-1.157c0.757-0.634,1.634-1.598,1.512-2.587
						c-0.066-0.538-0.227-0.871-0.491-1.018c-0.424-0.236-1.048,0.052-1.599,0.306c-0.085,0.039-0.168,0.077-0.247,0.112
						l-0.034-0.076c0.079-0.035,0.162-0.073,0.246-0.112c0.569-0.262,1.214-0.559,1.674-0.303c0.289,0.161,0.464,0.514,0.533,1.081
						C63.791,81.068,60.436,82.862,60.293,82.937z"/>
				</g>
				<g>
					<path fill="#FFFFFF" d="M51.251,80.762l-0.006-0.083c3.645-0.249,4.945-2.594,4.958-2.618l0.073,0.039
						C56.264,78.125,54.944,80.51,51.251,80.762z"/>
				</g>
				<g>
					<path fill="#FFFFFF" d="M59.236,92.24c0,0,2.318,0.137,3.654-0.684C62.889,91.556,61.899,95.134,59.236,92.24z"/>
				</g>
			</g>
			<g>
				<g>
					<path fill="#ed3c69" d="M63.685,124.597c0,0-15.412-3.831-17.481-1.969c-2.287,2.058-6.242,20.513-4.696,32.364
						c0.871,6.673,3.238,7.228,6.713,7.093l15.276-0.595L63.685,124.597z"/>
				</g>
			</g>
			<g>
				<g>
					<path fill="#F5A714" d="M61.991,124.946c1.273-0.7,11.435-2.321,16.431-8.686c5.388-6.865,5.663-18.685,11.575-17.31
						c5.734,1.334,3.995,22.92,3.885,24.223c-0.003,0.034,0.022,0.063,0.057,0.065c1.214,0.062,16.945,1.231,21.142,4.496
						c4.676,3.637,0.632,8.703,0.632,8.703c1.574,0.56,7.615,4.849-0.052,11.209c-0.037,0.031-0.036,0.085-0.008,0.125
						c0.877,1.257,5.714,7-4.18,10.447c0,0,3.451,6.742-3.742,8.454c-7.193,1.712-41.759-2.896-44.232-5.181
						C57.503,155.952,56.461,127.987,61.991,124.946z"/>
				</g>
			</g>
			<g>
				<path fill="#FCBDB6" d="M32.927,148.842c0,0,1.814-8.606,2.493-8.788c1.566-0.421,4.839-0.55,6.413-0.941
					c0.682-0.169,3.015-0.58,3.272,0.077c0.223,0.571-1.479,1.78-2.358,2.258c4.323,1.661,10.062,5.228,0.571,3.209
					c-0.001,0.005-0.003,0.01-0.005,0.015c0.915,0.373,6.705,2.452,6.27,3.805c-0.331,1.03-5.812-0.75-7.324-1.346
					c-0.007,0.013-0.014,0.027-0.021,0.04c1.484,0.74,6.046,2.355,5.553,3.506c-0.419,0.98-6.771-1.138-6.771-1.138
					s5.081,2.246,3.909,2.931c-1.076,0.628-5.894-1.343-7.356-1.935C36.054,149.922,32.927,148.842,32.927,148.842z"/>
			</g>
		</g>
		<g>
			<path fill="#333333" d="M77.334,113.537c-0.745-2.439-3.119-5.466-3.143-5.497l0.213-0.168c0.024,0.031,2.429,3.098,3.189,5.585
				L77.334,113.537z"/>
		</g>
		<g>
			<path fill="#333333" d="M57.622,187.79l-0.268-0.036c0.015-0.115,1.545-11.558,2.698-15.667c1.164-4.148,6.519-7.727,6.573-7.763
				l0.149,0.226c-0.053,0.035-5.325,3.559-6.462,7.61C59.164,176.251,57.637,187.675,57.622,187.79z"/>
		</g>
		<g>
			<g>
				<path fill="#FCBDB6" d="M100.773,122.627c0,0,2.664,0.364,2.335,2.383c-0.42,2.573-2.669,4.117-2.926,2.956
					c-0.051-0.229,0.36-2.664,0.36-2.664s-2.359,5.006-3.453,4.205c-1.094-0.801,1.005-5.081,1.005-5.081s-2.854,4.677-3.607,3.648
					c-0.752-1.028,1.125-4.925,1.125-4.925s-2.49,4.705-3.33,3.494c-0.841-1.21,1.046-3.408,1.584-4.499
					c0.509-1.031,1.481-1.068,2.654-0.551c0,0,1.502-0.043,2.173,0.453c0.257,0.19,0.667,0.066,0.897,0.126
					C100.028,122.285,100.773,122.627,100.773,122.627z"/>
			</g>
		</g>
		<g>
			<g>
				<path fill="#FCBDB6" d="M18.295,131.737c5.266-12.33,14.401-21.859,14.559-22.049c0,0,1.76-1.474,4.891,0.927
					c5.678,4.356,5.368,6.98,5.368,6.98s-12.761,16.94-14.315,19.466C27.767,138.74,16.799,135.238,18.295,131.737z"/>
			</g>
		</g>
		<g>
			<path fill="#FCBDB6" d="M37.895,139.654c0,0-6.216-2.993-10.775-8.865c-2.631-3.389-8.826,0.948-8.826,0.948
				s-3.136,5.758,0.588,10.645c3.434,4.505,14.044,6.46,14.044,6.46L37.895,139.654z"/>
		</g>
		<g>
			<path fill="#F9A6A0" d="M30.636,134.676c-0.029,0-0.058-0.012-0.08-0.035c-2.406-2.576-6.245-2.58-6.279-2.576
				c-0.061,0.006-0.11-0.048-0.11-0.109c0-0.06,0.048-0.11,0.109-0.11c0.039-0.001,3.97,0,6.44,2.646
				c0.041,0.044,0.039,0.113-0.005,0.155C30.689,134.666,30.662,134.676,30.636,134.676z"/>
		</g>
	</g>
	<g>
		<g>
			<g>
				<path fill="#FCBDB6" d="M329.959,119.557l-1.596-12.73l2.009-2.223c-0.049,0.001-6.939,2.315-12.849-0.434
					c-7.844-3.648-14.412-10.39-16.92-20.437l-8.313,2.428C301.393,118.017,329.276,119.584,329.959,119.557z"/>
			</g>
		</g>
		<g>
			<g>
				<path fill="#FCBDB6" d="M290.649,76.47c1.225-1.018,1.622,3.798,1.622,3.798s-0.228-3.775,0.712-4.773
					c0.749-0.795,1.537,2.62,1.827,4.043c0.013-0.003,0.026-0.006,0.039-0.009c-0.163-1.414-0.453-4.851,0.505-5.377
					c1.085-0.596,1.687,4.179,1.795,5.037c0.005,0,0.01,0,0.015-0.001c-0.285-8.511,2.138-2.825,2.565,1.206
					c0.597-0.636,4.173-1.141,4.603-0.824c0.495,0.365-1.7,2.277-2.137,2.709c-1.066,1.054-1.277,2.463-0.852,3.981
					c0.165,0.592-8.473,1.103-8.473,1.103s-0.953-1.674-1.709-4.469c-0.068-0.15-0.122-0.32-0.16-0.517
					c-0.045-0.234-0.11-0.546-0.182-0.899c0-0.001,0-0.002-0.001-0.003l0,0C290.473,79.777,289.959,77.044,290.649,76.47z"/>
			</g>
			<g>
				<path fill="#F9A6A0" d="M295.668,85.052c-0.058,0-0.108-0.042-0.117-0.101c-0.002-0.013-0.189-1.342,0.943-1.921
					c1.037-0.531,2.102-1.696,2.112-1.708c0.044-0.048,0.119-0.052,0.167-0.008c0.048,0.044,0.052,0.119,0.008,0.167
					c-0.044,0.049-1.104,1.209-2.18,1.76c-0.978,0.501-0.824,1.627-0.817,1.675c0.01,0.065-0.035,0.125-0.1,0.135
					C295.68,85.052,295.674,85.052,295.668,85.052z"/>
			</g>
		</g>
		<g>
			<path fill="#333333" d="M333.939,235.158c0,0-0.083,3.28-2.319,4.206c-2.237,0.925-8.717,1.76-6.296,3.869
				c1.39,1.21,7.938,0.428,9.787,0.428c1.849,0,3.585,0.8,4.959-0.428c1.511-1.351,0-8.075,0-8.075s-1.595,0.825-3.03,0.788
				C334.971,235.892,333.939,235.158,333.939,235.158z"/>
		</g>
		<g>
			<path fill="#333333" d="M359.626,235.157c0,0-0.083,3.28-2.319,4.206c-2.237,0.925-8.717,1.76-6.296,3.869
				c1.39,1.21,7.938,0.428,9.787,0.428c1.849,0,3.585,0.8,4.959-0.428c1.511-1.351,0-8.075,0-8.075s-1.595,0.825-3.03,0.788
				C360.658,235.892,359.626,235.157,359.626,235.157z"/>
		</g>
		<g>
			<path fill="#363651" d="M317.315,145.232c0,0-0.414,13.731,4.003,40.072c3.188,19.016,6.952,38.178,8.799,47.365
				c0.661,3.286,3.446,5.689,6.746,5.82l1.774,0.071c3.569,0.142,6.465-2.9,6.204-6.517l-4.48-62.152l-1.104-20.456L317.315,145.232
				z"/>
		</g>
		<g>
			<path fill="#333333" d="M357.712,157.316c-0.204,1.671-9.726,1.468-21.385,0.004c-11.659-1.464-20.734-3.971-20.53-5.642
				s9.609-1.874,21.267-0.41C348.724,152.732,357.916,155.644,357.712,157.316z"/>
		</g>
		<g>
			<path fill="#363651" d="M330.701,155.039l24.891,79.349c1.042,3.321,4.055,5.597,7.488,5.656l1.496,0.025
				c3.532,0.06,6.233-3.182,5.589-6.709l-13.616-74.559c-0.198-0.886-0.857-1.591-1.718-1.837
				C350.161,155.628,330.242,151.758,330.701,155.039z"/>
		</g>
		<g>
			<g>
				<g>
					<path fill="#FCBDB6" d="M359.299,151.711l-5.643-6.506c0.101-0.062,11.179-7.003,10.118-16.886
						c-0.553-5.152-3.665-9.296-9.25-12.318c-4.445-2.405-8.806-3.159-8.849-3.166l1.327-8.44c0.231,0.038,5.736,0.955,11.481,4.064
						c8.075,4.37,12.798,10.917,13.659,18.935c0.695,6.475-1.587,12.914-6.598,18.621
						C361.948,150.109,362.108,150.354,359.299,151.711z"/>
				</g>
			</g>
		</g>
		<g>
			<path fill="#92DDF7" d="M353.82,111.631c0,0-3.312-9.247-15.109-8.826c-11.798,0.421-20.706,15.806-22.913,48.872
				c0,0,19.319-4.204,41.949,5.603C357.747,157.281,359.001,125.109,353.82,111.631z"/>
		</g>
		<g>
			<path fill="#80CFE5" d="M363.084,109.676l-9.338,6.707c0,0-24.769,8.965-29.336,5.397c-7.586-5.926-3.355-16.959-3.355-16.959
				s3.974,0.383,14.635-1.64c0.968-0.184,1.976-0.301,3.019-0.376c1.751-0.123,3.502-0.07,5.219,0.113
				C354.129,104.011,363.084,109.676,363.084,109.676z"/>
		</g>
		<g>
			<path fill="#333333" d="M363.084,109.676c0.506,0.726-1.174,2.817-3.752,4.669c-2.578,1.852-5.079,2.765-5.585,2.038
				c-0.506-0.726,1.174-2.817,3.752-4.669C360.077,109.862,362.578,108.95,363.084,109.676z"/>
		</g>
		<g>
			<path fill="#F9A6A0" d="M369.441,130.583c-0.854,0-1.549-0.971-1.549-2.166c0-1.194,0.695-2.165,1.549-2.166
				c0.854,0,1.549,0.971,1.549,2.166C370.99,129.611,370.295,130.583,369.441,130.583z M369.441,126.66
				c-0.629,0-1.141,0.789-1.141,1.758c0,0.969,0.512,1.758,1.141,1.758c0.629,0,1.141-0.789,1.141-1.758
				C370.582,127.448,370.07,126.66,369.441,126.66z"/>
		</g>
		<g>
			<path fill="#FCBDB6" d="M343.908,102.917c-1.262-0.134-2.358-0.92-2.86-2.076l-1.573-3.624l-0.456-1.052l-2.683-6.185l0.465,6.41
				l0.28,3.847l0.08,1.097c0.065,0.895-0.565,1.687-1.455,1.845l-0.016,0.003c-0.477,0.771-1.137,2.337,0.834,2.959
				c2.315,0.731,6.061-1.078,7.405-3.221C343.922,102.918,343.915,102.917,343.908,102.917z"/>
		</g>
		<g>
			<path fill="#FCBDB6" d="M358.206,142.335c0,0-3.496-3.176-6.256-2.895c-2.76,0.28-6.072,2.709-4.324,2.896
				c1.748,0.187,4.048-0.187,4.048-0.187s-4.876,1.028-4.14,2.055c0.736,1.027,4.968,0.093,4.968,0.093s-5.704,1.682-4.692,2.429
				c1.012,0.747,5.336-0.561,5.336-0.561s-5.244,1.775-4.048,2.616c1.196,0.841,4.324-1.495,5.06-0.467
				c0.736,1.027,2.116,5.044,5.244,3.363L358.206,142.335z"/>
		</g>
		<g>
			<path fill="#333333" d="M341.826,190.506l-5.353-16.149c-1.204-3.631-3.679-6.662-6.971-8.534l0.206-0.363
				c3.382,1.923,5.925,5.035,7.161,8.765l5.353,16.149L341.826,190.506z"/>
		</g>
		<g>
			<path fill="#FCBDB6" d="M355.469,116.508c0,0-0.517-1.541,1.828-3.258c2.346-1.716,5.387-2.102,5.387-2.102l0.615,2.942
				l-3.312,1.436L355.469,116.508z"/>
		</g>
		<g>
			<path fill="#501506" d="M343.636,88.924c0,0-0.25,1.052,0.359,3.208c0.892,3.154-2.741,4.471-3.67,3.571
				c-0.115-0.111,0.037-5.477,0.037-5.477l1.161-0.685L343.636,88.924z"/>
		</g>
		<g>
			<path fill="#333333" d="M339.482,97.11c-0.001,0.035-0.003,0.071-0.007,0.106c-0.154,2.066-2.381,3.032-2.381,3.032l-0.013-0.011
				l-0.28-3.847c0.681-0.248,1.651-0.502,2.218-0.225C339.316,96.309,339.503,96.599,339.482,97.11z"/>
		</g>
		<g>
			<ellipse fill="#FCBDB6" cx="336.043" cy="91.004" rx="6.068" ry="7.43"/>
		</g>
		<g>
			<path fill="#501506" d="M333.639,85.301c0.169,0.228-0.786,4.05,6.349,4.963c7.135,0.913,2.849-7.678-2.416-7.872
				c-7.602-0.28-8.708,4.792-7.978,6.618C330.324,90.835,333.639,85.301,333.639,85.301z"/>
		</g>
		<g>
			<path fill="#501506" d="M344.636,80.602c0,0-3.205,2.128-0.74,4.131c2.466,2.003,9.246,2.879,7.397,6.258
				c-1.849,3.38-3.451,8.386-0.123,9.012c3.328,0.626,5.424,0.375,6.78,3.004c1.356,2.629,7.397,1.001,6.903-2.128
				c-0.493-3.129,4.684-5.883,2.465-8.762c-2.219-2.879-7.643-5.382-8.999-9.137C356.964,79.225,347.225,78.975,344.636,80.602z"/>
		</g>
		<g>
			<path fill="#501506" d="M339.201,89.047c0,0,2.916,3.051,1.905,6.169c0,0,1.691-1.834,1.729-2.518
				c0.037-0.685-0.412-3.157-0.412-3.157L339.201,89.047z"/>
		</g>
		<g>
			<path fill="#FCBDB6" d="M341.3,92.125c-0.687,0.651-1.648,0.718-2.147,0.149c-0.498-0.569-0.345-1.558,0.342-2.21
				c0.687-0.651,1.649-0.718,2.147-0.149C342.14,90.484,341.987,91.473,341.3,92.125z"/>
		</g>
		<g>
			<path fill="#FFFFFF" d="M363.375,104.027c-0.017,0-0.035-0.003-0.052-0.01c-0.862-0.331-1.373-0.748-1.563-1.275
				c-0.288-0.801,0.208-1.677,0.732-2.604c0.46-0.813,0.936-1.654,0.821-2.409c-0.135-0.891-1.315-1.099-2.563-1.319
				c-1.054-0.186-2.144-0.379-2.574-1.049c-0.203-0.317-0.244-0.719-0.119-1.195c0.137-0.527,0.306-0.999,0.469-1.455
				c0.701-1.961,1.255-3.51-1.843-7.057c-3.974-4.55-7.266-4.769-10.232-4.329c-0.346,0.051-1.225,0.501-1.22,0.899
				c0.002,0.206,0.286,0.719,2.858,1.04c0.049,0.01,3.654,0.844,5.39,4.704c0.925,2.057-0.389,4.258-1.445,6.026
				c-0.708,1.185-1.319,2.209-1.129,2.896c0.069,0.25,0.245,0.449,0.539,0.607c0.72,0.388,1.526,0.605,2.307,0.814
				c2.007,0.539,4.083,1.096,4.343,4.684c0.006,0.079-0.054,0.148-0.133,0.154c-0.074,0.005-0.148-0.054-0.154-0.133
				c-0.246-3.384-2.046-3.868-4.131-4.427c-0.796-0.214-1.619-0.435-2.369-0.839c-0.361-0.195-0.59-0.459-0.68-0.784
				c-0.222-0.805,0.418-1.878,1.16-3.12c1.074-1.8,2.293-3.84,1.429-5.76c-1.677-3.729-5.141-4.531-5.176-4.539
				c-2.072-0.258-3.089-0.69-3.096-1.32c-0.008-0.635,1.086-1.131,1.466-1.188c3.045-0.452,6.425-0.23,10.491,4.424
				c3.209,3.674,2.63,5.293,1.897,7.343c-0.161,0.451-0.328,0.916-0.462,1.431c-0.104,0.401-0.077,0.717,0.083,0.967
				c0.362,0.564,1.389,0.745,2.382,0.921c1.294,0.228,2.632,0.465,2.798,1.56c0.129,0.853-0.371,1.738-0.855,2.594
				c-0.491,0.868-0.955,1.689-0.712,2.365c0.159,0.444,0.616,0.805,1.395,1.103c0.074,0.028,0.111,0.112,0.083,0.186
				C363.487,103.992,363.433,104.027,363.375,104.027z"/>
		</g>
		<g>
			<path fill="#FFFFFF" d="M340.044,88.012c-0.001,0-0.002,0-0.003,0c-2.743-0.058-4.108-2.201-4.165-2.293
				c-0.042-0.067-0.021-0.156,0.046-0.198c0.068-0.042,0.156-0.021,0.198,0.046c0.013,0.021,1.343,2.102,3.926,2.157
				c0.08,0.002,0.142,0.067,0.141,0.147C340.186,87.95,340.122,88.012,340.044,88.012z"/>
		</g>
		<g>
			<path fill="#F9A6A0" d="M351.71,142.244l-0.071-0.191c0.057-0.021,1.401-0.511,2.145,0.012l-0.117,0.167
				C353.01,141.769,351.723,142.239,351.71,142.244z"/>
		</g>
		<g>
			<path fill="#F9A6A0" d="M352.54,144.392l-0.075-0.19c0.054-0.021,1.349-0.518,2.527,0.001l-0.082,0.187
				C353.809,143.904,352.552,144.387,352.54,144.392z"/>
		</g>
		<g>
			<path fill="#F9A6A0" d="M353.183,146.261l-0.071-0.191c0.068-0.025,1.656-0.607,2.401,0.017l-0.131,0.156
				C354.726,145.695,353.198,146.255,353.183,146.261z"/>
		</g>
		<g>
			<path fill="#191923" d="M317.525,153.174c0,0,5.419-0.748,13.556-0.151c12.603,0.924,23.306,3.82,23.306,3.82l-4,0.667
				l-25.05,0.985l-5.042-4.104L317.525,153.174z"/>
		</g>
		<g>
			<path fill="#E9633E" d="M332.692,95.812c0,0,2.073,0.047,4.146-0.675c0,0,0.172,2.028-2.073,2.164
				C333.459,97.379,332.692,95.812,332.692,95.812z"/>
		</g>
		<g>
			<path fill="#FFFFFF" d="M332.692,95.812c0,0,0.502,0.413,1.672,0.408c1.17-0.005,2.474-1.083,2.474-1.083
				S334.34,95.818,332.692,95.812z"/>
		</g>
		<g>
			<g>
				<path fill="#080435" d="M335.456,91.076c-0.04-0.011-0.075-0.04-0.092-0.081c-0.028-0.07,0.006-0.15,0.077-0.178
					c0.042-0.017,0.971-0.491,1.787,0.395c0.051,0.056,0.05,0.142-0.005,0.194c-0.055,0.052-0.132,0.037-0.195-0.005
					c-0.634-0.423-1.449-0.343-1.484-0.33C335.514,91.082,335.484,91.083,335.456,91.076z"/>
			</g>
		</g>
		<g>
			<path fill="#080435" d="M336.548,92.581c0.01,0.327-0.175,0.598-0.414,0.605c-0.239,0.008-0.441-0.251-0.452-0.578
				c-0.01-0.327,0.175-0.598,0.414-0.605C336.335,91.996,336.538,92.254,336.548,92.581z"/>
		</g>
		<g>
			<g>
				<path fill="#080435" d="M330.529,91.79c-0.042,0.005-0.085-0.008-0.116-0.04c-0.053-0.054-0.052-0.141,0.002-0.193
					c0.032-0.031,0.709-0.821,1.804-0.31c0.069,0.032,0.101,0.112,0.07,0.181c-0.031,0.069-0.108,0.084-0.182,0.069
					c-0.748-0.151-1.472,0.23-1.499,0.256C330.585,91.774,330.557,91.786,330.529,91.79z"/>
			</g>
		</g>
		<g>
			<path fill="#080435" d="M332.117,92.769c0.135,0.298,0.068,0.619-0.15,0.716c-0.218,0.097-0.504-0.066-0.639-0.364
				c-0.135-0.298-0.068-0.619,0.15-0.716C331.695,92.308,331.981,92.471,332.117,92.769z"/>
		</g>
		<g>
			<path fill="#333333" d="M321.805,119.412c-0.017,0-0.035-0.003-0.052-0.01c-0.074-0.029-0.111-0.112-0.082-0.187
				c0.01-0.026,1.034-2.633,3.232-6.742c0.038-0.07,0.124-0.097,0.195-0.059c0.07,0.038,0.096,0.125,0.059,0.195
				c-2.19,4.094-3.208,6.685-3.218,6.711C321.917,119.378,321.862,119.412,321.805,119.412z"/>
		</g>
		<g>
			<g>
				<g>
					<path fill="#ed3c69" d="M323.393,37.618c0,0,15.206-4.581,17.364-2.823c2.385,1.944,7.239,20.183,6.275,32.095
						c-0.543,6.708-2.88,7.378-6.357,7.413l-15.287,0.154L323.393,37.618z"/>
				</g>
			</g>
			<g>
				<g>
					<path fill="#F5A714" d="M325.102,37.883c-1.306-0.637-11.535-1.758-16.837-7.871c-5.717-6.593-6.571-18.386-12.408-16.723
						c-5.661,1.613-2.868,23.088-2.694,24.384c0.005,0.034-0.019,0.064-0.053,0.067c-1.209,0.121-16.865,2.06-20.897,5.526
						c-4.492,3.862-0.205,8.723-0.205,8.723c-1.545,0.636-7.368,5.216,0.601,11.193c0.039,0.029,0.04,0.083,0.014,0.124
						c-0.814,1.299-5.364,7.271,4.687,10.23c0,0-3.117,6.903,4.151,8.261c7.269,1.358,41.567-4.938,43.925-7.341
						C331.103,68.632,330.775,40.65,325.102,37.883z"/>
				</g>
			</g>
		</g>
	</g>
	<g>
		<g>
			<path fill="#501506" d="M157.323,81.096c0,0,3.105-1.251,5.127,1.692c2.022,2.944,1.843,1.232,4.955,4.583
				c3.112,3.351-1.955,5.082-0.89,7.911c1.065,2.829,3.556,2.984,2.804,6.705c-0.752,3.721-3.742,2.442-3.589,4.805
				c0.153,2.362,1.806,4.515-0.897,5.057c-2.704,0.542-3.501,0.394-5.035,3.825c-1.533,3.432-6.358,0.422-9.998,1.857
				c-3.639,1.435-13.098,0.898-13.702-1.229c-0.604-2.128-7.978-3.284-4.39-9.248c1.979-3.289-1.082-2.518-1.529-6.812
				c-0.366-3.517,4.306-2.849,2.391-5.994c-0.855-1.404-1.359-5.239,1.912-7.636c3.27-2.397,2.686-7.286,7.731-6.38
				c5.045,0.906,5.546-1.027,8.533-1.938C153.734,77.382,155.41,81.405,157.323,81.096z"/>
		</g>
		<g>
			<g>
				<path fill="#FCBDB6" d="M164.851,120.057l-5.253-11.705l-2.872-0.855c0.042-0.024,7.131-1.628,10.753-7.048
					c4.805-7.193,6.914-16.366,3.835-26.254l8.364-2.246C188.456,103.895,165.449,119.724,164.851,120.057z"/>
			</g>
		</g>
		<g>
			<path fill="#333333" d="M152.494,235.736c0,0,0.076,3.217,2.131,4.125c2.055,0.908,8.01,1.727,5.785,3.795
				c-1.277,1.187-7.294,0.42-8.993,0.42c-1.699,0-3.294,0.784-4.557-0.42c-1.389-1.325,0-7.92,0-7.92s1.466,0.809,2.784,0.773
				C151.546,236.456,152.494,235.736,152.494,235.736z"/>
		</g>
		<g>
			<path fill="#333333" d="M125.914,232.531c0,0-1.1,3,0.466,4.676c1.566,1.676,6.764,4.863,3.958,5.863
				c-1.61,0.574-6.884-2.59-8.451-3.284c-1.568-0.694-3.325-0.621-4.052-2.248c-0.8-1.79,2.882-7.308,2.882-7.308
				s1.059,1.345,2.288,1.85C124.777,232.808,125.914,232.531,125.914,232.531z"/>
		</g>
		<g>
			<path fill="#222230" d="M167.77,147.536c0,0-0.146,14.829-1.273,40.992c-0.883,20.512-0.701,39.522-2.398,48.532
				c-0.607,3.223-23.06,1.58-22.82-1.967l5.315-63.371l1.015-20.064L167.77,147.536z"/>
		</g>
		<g>
			<path fill="#333333" d="M130.372,158.937c0.042,1.65,8.772,2.315,19.565,1.942c10.793-0.373,19.312-1.998,19.27-3.649
				c-0.042-1.65-8.629-2.701-19.422-2.328C138.991,155.276,130.33,157.287,130.372,158.937z"/>
		</g>
		<g>
			<path fill="#222230" d="M155.477,158.511l-19.948,78.531c-0.957,3.258-22.867-5.887-22.275-9.347l18.465-66.85
				c0.182-0.869,0.787-1.56,1.579-1.802C137.588,157.733,155.898,155.292,155.477,158.511z"/>
		</g>
		<g>
			<path fill="#FFE269" d="M132.793,112.918c0,0,8.465-5.774,19.286-4.859c15.012,1.271,14.451,4.21,17.127,49.171
				c0,0-17.312-5.856-38.863,1.669C130.344,158.9,129.375,134.909,132.793,112.918z"/>
		</g>
		<g>
			<path fill="#DBC35C" d="M137.533,105.197l-1.356,13.887c0,0,25.655,8.722,28.338,4.118c6.371-10.933-3.793-18.005-3.793-18.005
				s-4.3,2.213-9.012,2.118c-1.564-0.032-4.576-0.344-6.159-0.463C141.861,106.576,137.533,105.197,137.533,105.197z"/>
		</g>
		<g>
			<path fill="#333333" d="M144.088,203.57l-0.387-0.086l6.089-27.49c1.139-3.672,3.476-6.724,6.584-8.61l0.205,0.339
				c-3.025,1.836-5.3,4.809-6.407,8.373L144.088,203.57z"/>
		</g>
		<g>
			<path fill="#FCBDB6" d="M145.552,106.853c1.059-0.248,1.914-1.069,2.231-2.168l0.991-3.442l0.287-0.999l1.69-5.874l0.215,5.856
				l0.128,3.515l0.037,1.002c0.03,0.817,0.254,2.399,0.58,2.573c0,0,2.032,0.959,0.418,1.72c-1.897,0.894-5.248-0.371-6.594-2.179
				C145.54,106.855,145.546,106.854,145.552,106.853z"/>
		</g>
		<g>
			<path fill="#333333" d="M148.757,101.147c0.004,0.032,0.01,0.064,0.016,0.095c0.327,1.857,2.31,2.509,2.31,2.509l0.01-0.012
				l-0.128-3.515c-0.602-0.156-1.449-0.29-1.905,0.018C148.822,100.405,148.691,100.686,148.757,101.147z"/>
		</g>
		<g>
			
				<ellipse transform="matrix(0.9963 -0.0865 0.0865 0.9963 -7.6718 13.4218)" fill="#FCBDB6" cx="151.097" cy="95.27" rx="5.187" ry="6.771"/>
		</g>
		<g>
			<path fill="#FFFFFF" d="M154.329,99.3c0,0-1.756,0.25-3.584-0.197c0,0,0.047,1.855,1.966,1.754
				C153.827,100.798,154.329,99.3,154.329,99.3z"/>
		</g>
		<g>
			<g>
				<path fill="#080435" d="M151.602,95.276c0.033-0.014,0.06-0.044,0.07-0.083c0.017-0.066-0.019-0.135-0.082-0.154
					c-0.037-0.011-0.871-0.348-1.48,0.537c-0.038,0.056-0.029,0.133,0.023,0.175c0.052,0.042,0.115,0.021,0.165-0.024
					c0.498-0.447,1.198-0.456,1.229-0.447C151.553,95.288,151.579,95.286,151.602,95.276z"/>
			</g>
		</g>
		<g>
			<path fill="#080435" d="M150.818,96.75c0.022,0.297,0.205,0.524,0.409,0.507c0.204-0.017,0.351-0.272,0.328-0.569
				c-0.022-0.297-0.205-0.524-0.409-0.507C150.943,96.198,150.796,96.452,150.818,96.75z"/>
		</g>
		<g>
			<g>
				<path fill="#080435" d="M155.854,95.431c0.036,0.001,0.071-0.016,0.095-0.048c0.04-0.054,0.031-0.133-0.02-0.175
					c-0.03-0.025-0.68-0.673-1.561-0.101c-0.056,0.036-0.075,0.111-0.042,0.171c0.033,0.06,0.099,0.066,0.161,0.045
					c0.621-0.212,1.272,0.062,1.297,0.082C155.804,95.422,155.829,95.43,155.854,95.431z"/>
			</g>
		</g>
		<g>
			<path fill="#080435" d="M154.599,96.477c-0.086,0.284,0.001,0.568,0.196,0.634c0.194,0.066,0.422-0.11,0.508-0.394
				c0.086-0.284-0.001-0.568-0.196-0.634C154.913,96.017,154.685,96.193,154.599,96.477z"/>
		</g>
		<g>
			<path fill="#333333" d="M137.585,105.224c-1.925-0.307-2.916,2.054-3.983,6.549c-1.067,4.495-1.286,6.367,0.639,6.674
				c1.925,0.307,3.825-1.544,4.94-6.031C139.999,109.124,139.51,105.531,137.585,105.224z"/>
		</g>
		<g>
			<path fill="#191923" d="M134.693,158.685c0,0,19.467-4.96,32.884-0.18l-3.324,2.039l-12.359,0.741L134.693,158.685z"/>
		</g>
		<g>
			<path fill="#FCBDB6" d="M146.148,96.881c0.646,0.522,1.468,0.486,1.837-0.079c0.369-0.565,0.145-1.447-0.501-1.968
				c-0.646-0.522-1.468-0.486-1.837,0.079C145.278,95.478,145.502,96.359,146.148,96.881z"/>
		</g>
		<g>
			<path fill="#501506" d="M153.102,90.25c0,0-0.063,1.94-2.017,1.981c0,0,0.21,1.578-1.724,1.381c0,0,0.251,1.055-1.083,1.306
				c0,0-0.444,1.097-2.008,0.617c-1.563-0.48-2.651-3.604-1.194-5.425c1.457-1.821,5.477-3.567,8.021-2.547
				c2.544,1.02,4.379,6.351,3.766,6.725s-2.065,0.192-2.261-1.01c0,0-1.338-0.408-1.085-1.711
				C153.518,91.568,153.117,90.814,153.102,90.25z"/>
		</g>
		<g>
			<path fill="#FF7B69" d="M146.414,101.302c-0.031,0-0.061-0.001-0.088-0.002c-0.919-0.042-1.793-0.705-1.909-1.447
				c-0.213-1.367,0.953-2.613,1.003-2.665c0.052-0.054,0.138-0.057,0.193-0.005c0.055,0.052,0.057,0.138,0.005,0.193
				c-0.011,0.012-1.123,1.202-0.931,2.435c0.097,0.622,0.853,1.179,1.652,1.216c0.892,0.043,1.562-0.568,1.839-1.671
				c0.21-0.834,0.138-1.523-0.215-2.047c-0.538-0.8-1.563-0.952-1.573-0.954c-0.075-0.011-0.127-0.08-0.116-0.154
				c0.01-0.075,0.081-0.127,0.154-0.116c0.047,0.007,1.153,0.169,1.76,1.07c0.399,0.591,0.484,1.354,0.254,2.268
				C148.024,101.086,146.945,101.302,146.414,101.302z"/>
		</g>
		<g>
			<path fill="#FF7B69" d="M154.813,102.078c-0.556,0-0.967-0.194-0.975-0.198c-0.068-0.033-0.096-0.114-0.063-0.182
				c0.033-0.067,0.114-0.096,0.182-0.063c0.059,0.028,1.462,0.684,2.505-0.715c1.048-1.407,0.082-2.684,0.04-2.738
				c-0.046-0.06-0.036-0.145,0.024-0.192c0.06-0.046,0.145-0.036,0.191,0.024c0.012,0.015,1.139,1.492-0.036,3.069
				C156.088,101.879,155.376,102.078,154.813,102.078z"/>
		</g>
		<g>
			<path fill="#501506" d="M144.518,79.158c-0.367,0-0.757-0.037-1.167-0.123c-0.074-0.015-0.121-0.088-0.106-0.161
				c0.015-0.074,0.087-0.122,0.161-0.106c3.068,0.637,4.902-1.539,4.92-1.561c0.048-0.058,0.134-0.067,0.192-0.019
				c0.058,0.048,0.067,0.134,0.019,0.192C148.52,77.401,147.04,79.158,144.518,79.158z"/>
		</g>
		<g>
			<path fill="#501506" d="M166.657,85.556c-0.017,0-0.035-0.003-0.052-0.01c-0.094-0.038-2.333-0.969-4.002-3.276
				c-1.807-2.498-3.774-2.126-4.536-1.85c-1.223,0.443-2.194-0.451-2.235-0.489c-0.055-0.051-0.058-0.138-0.006-0.193
				c0.052-0.055,0.138-0.058,0.193-0.007c0.009,0.008,0.893,0.816,1.955,0.432c0.82-0.297,2.935-0.701,4.851,1.947
				c1.621,2.241,3.861,3.174,3.884,3.183c0.07,0.028,0.103,0.108,0.075,0.178C166.761,85.524,166.71,85.556,166.657,85.556z"/>
		</g>
		<g>
			<path fill="#501506" d="M131.09,97.126c-0.041,0-0.082-0.019-0.109-0.054c-0.045-0.06-0.033-0.146,0.027-0.191
				c1.244-0.936,0.95-1.57-0.166-3.435c-1.168-1.951,0.565-4.232,0.639-4.328c0.046-0.06,0.132-0.071,0.191-0.025
				c0.06,0.046,0.071,0.132,0.025,0.191c-0.017,0.022-1.692,2.231-0.621,4.021c1.135,1.896,1.537,2.708,0.096,3.793
				C131.147,97.117,131.118,97.126,131.09,97.126z"/>
		</g>
		<g>
			<path fill="#764678" d="M130.423,107.433c-0.037,0-0.073-0.015-0.1-0.044c-0.051-0.055-0.048-0.142,0.007-0.193
				c1.511-1.403,0.375-2.836,0.326-2.897c-0.048-0.058-0.039-0.144,0.019-0.192c0.058-0.047,0.144-0.039,0.192,0.019
				c0.014,0.017,1.35,1.689-0.351,3.27C130.489,107.421,130.456,107.433,130.423,107.433z"/>
		</g>
		<g>
			<path fill="#FFFFFF" d="M138.145,90.757c-0.041,0-0.081-0.018-0.108-0.053c-0.037-0.047-0.898-1.179-0.718-2.578
				c0.112-0.867,0.601-1.639,1.453-2.294c1.398-1.074,2.299-0.93,3.253-0.778c0.938,0.15,1.907,0.304,3.523-0.701
				c1.75-1.089,3.047-1.001,3.826-0.737c0.853,0.29,1.282,0.839,1.299,0.862c0.046,0.06,0.035,0.145-0.025,0.191
				c-0.06,0.046-0.146,0.035-0.191-0.025c-0.065-0.083-1.616-2.019-4.765-0.06c-1.703,1.059-2.77,0.889-3.711,0.739
				c-0.933-0.149-1.739-0.277-3.043,0.724c-0.792,0.608-1.245,1.318-1.348,2.109c-0.167,1.285,0.654,2.367,0.663,2.378
				c0.046,0.06,0.035,0.145-0.025,0.191C138.204,90.748,138.175,90.757,138.145,90.757z"/>
		</g>
		<g>
			<path fill="#FFFFFF" d="M163.428,99.734c-0.007,0-0.015-0.001-0.022-0.002c-0.074-0.012-0.125-0.082-0.113-0.157
				c0.192-1.17-0.398-1.403-1.376-1.787c-0.417-0.164-0.889-0.35-1.367-0.645c-0.355-0.219-0.527-0.424-0.541-0.647
				c-0.02-0.318,0.288-0.565,0.644-0.851c0.483-0.388,1.03-0.827,0.993-1.543c-0.047-0.908-0.504-0.974-1.195-1.073
				c-0.46-0.066-0.981-0.141-1.461-0.496c-0.634-0.468-0.65-1.096-0.662-1.6c-0.013-0.518-0.038-0.77-0.466-0.826
				c-1.207-0.16-1.557-1.546-1.571-1.605c-0.018-0.073,0.027-0.147,0.1-0.165c0.073-0.018,0.147,0.027,0.165,0.1
				c0.003,0.013,0.321,1.263,1.342,1.399c0.678,0.09,0.691,0.599,0.703,1.09c0.012,0.468,0.025,0.999,0.552,1.387
				c0.425,0.314,0.91,0.384,1.338,0.445c0.705,0.102,1.37,0.198,1.429,1.33c0.044,0.856-0.587,1.363-1.095,1.771
				c-0.285,0.228-0.553,0.444-0.542,0.621c0.008,0.123,0.146,0.268,0.411,0.431c0.457,0.282,0.918,0.463,1.324,0.623
				c0.99,0.39,1.772,0.698,1.545,2.086C163.551,99.687,163.493,99.734,163.428,99.734z"/>
		</g>
		<g>
			<path fill="#FFFFFF" d="M138.354,104.977c-0.001,0-0.002,0-0.003,0c-0.075-0.002-0.135-0.064-0.134-0.139
				c0.023-1.084-0.865-1.843-1.649-2.511c-0.628-0.535-1.17-0.998-1.141-1.546c0.018-0.341,0.261-0.667,0.744-0.997
				c0.724-0.495,1.147-1.074,1.257-1.72c0.159-0.931-0.393-1.698-0.398-1.705c-0.045-0.061-0.031-0.146,0.029-0.191
				c0.06-0.045,0.146-0.032,0.191,0.029c0.026,0.035,0.625,0.863,0.448,1.91c-0.122,0.724-0.584,1.364-1.373,1.903
				c-0.407,0.279-0.612,0.536-0.625,0.786c-0.022,0.413,0.472,0.835,1.045,1.323c0.789,0.673,1.771,1.511,1.745,2.725
				C138.489,104.918,138.428,104.977,138.354,104.977z"/>
		</g>
		<g>
			<g>
				<path fill="#FCBDB6" d="M119.491,86.627c1.4-4.929,3.882-10.544,3.95-10.703l6.754,4.737l-4.452-1.768l4.906,0.724
					c-1.364,3.257-4.676,14.069-1.57,20.139c1.334,2.607,3.696,4.34,7.209,5.285c0.523,0.141,0.95,0.518,1.155,1.019
					c0.399,0.971,1.35,3.815,0.398,7.163c-0.902,3.173-2.652,3.173-2.652,3.173C128.63,114.856,114.019,105.894,119.491,86.627z"/>
			</g>
		</g>
		<g>
			<g>
				<path fill="#FCBDB6" d="M176.044,62.816c-1.576-0.233,0.588,4.088,0.588,4.088s-1.767-3.343-3.089-3.708
					c-1.053-0.29,0.048,3.037,0.54,4.403c-0.013,0.004-0.025,0.008-0.038,0.012c-0.596-1.293-2.134-4.379-3.225-4.331
					c-1.236,0.054,0.731,4.447,1.084,5.237c-0.004,0.002-0.009,0.005-0.013,0.007c-4.18-7.42-3.295-1.303-1.565,2.363
					c-0.841-0.233-4.158,1.194-4.36,1.688c-0.233,0.568,2.636,1.062,3.234,1.204c1.459,0.346,2.371,1.441,2.797,2.958
					c0.166,0.592,7.812-3.461,7.812-3.461s-0.055-1.925-0.863-4.707c-0.02-0.163-0.062-0.337-0.132-0.525
					c-0.083-0.223-0.19-0.523-0.312-0.863c0-0.001-0.001-0.002-0.001-0.003c0,0,0,0,0,0
					C177.914,65.55,176.933,62.947,176.044,62.816z"/>
			</g>
			<g>
				<path fill="#FCBDB6" d="M172.183,71.949c0,0,1.537,0.454,2.734,0.366c1.198-0.088,1.686,1.079,1.686,1.079L172.183,71.949z"/>
			</g>
		</g>
		<g>
			<g>
				<path fill="#FCBDB6" d="M127.037,67.542c1.567-0.215-0.627,4.053-0.627,4.053s1.791-3.302,3.107-3.649
					c1.049-0.277-0.08,3.016-0.583,4.367c0.012,0.004,0.025,0.008,0.037,0.013c0.605-1.277,2.166-4.327,3.249-4.267
					c1.227,0.067-0.773,4.409-1.132,5.189c0.004,0.002,0.008,0.005,0.013,0.007c4.23-7.324,3.286-1.259,1.529,2.364
					c0.837-0.222,2.629-0.475,2.825,0.018c0.225,0.567-1.493,1.698-2.025,1.998c-1.226,0.692-3.374,2.56-4.613,3.228
					c-0.537,0.29-5.63-2.972-5.63-2.972s0.076-1.911,0.907-4.665c0.022-0.162,0.065-0.334,0.137-0.52
					c0.085-0.221,0.194-0.518,0.319-0.853c0-0.001,0.001-0.002,0.001-0.003c0,0,0,0,0,0
					C125.151,70.237,126.154,67.664,127.037,67.542z"/>
			</g>
		</g>
		<g>
			<g>
				<g>
					<path fill="#ed3c69" d="M124.374,39.773c0,0-15.877,0.362-17.383,2.703c-1.665,2.588-0.621,21.433,3.992,32.458
						c2.597,6.208,5.027,6.121,8.343,5.075l14.581-4.597L124.374,39.773z"/>
				</g>
			</g>
			<g>
				<g>
					<path fill="#F5A714" d="M122.831,40.556c1.044-1.011,10.421-5.25,13.564-12.706c3.39-8.041,0.543-19.517,6.608-19.747
						c5.882-0.223,9.889,21.059,10.126,22.345c0.006,0.034,0.038,0.055,0.072,0.047c1.187-0.26,16.672-3.274,21.58-1.23
						c5.468,2.278,2.902,8.229,2.902,8.229c1.666,0.125,8.623,2.673,2.901,10.827c-0.028,0.04-0.012,0.091,0.025,0.122
						c1.177,0.982,7.355,5.248-1.282,11.179c0,0,5.105,5.595-1.384,9.141c-6.489,3.546-41.048,8.201-44.036,6.648
						C126.666,71.649,118.297,44.946,122.831,40.556z"/>
				</g>
			</g>
		</g>
	</g>
</g>
</svg>
