<svg id="Layer_1" data-name="Layer 1" xmlns="http://www.w3.org/2000/svg" viewBox="0 0 60 60"><defs><style>.cls-1{fill:#f9edef;}.cls-2{fill:#ed3a68;}.cls-3{fill:#ffba5d;}</style></defs><circle class="cls-1" cx="30" cy="30" r="30"/><path class="cls-2" d="M18.5,32.73,13,43.57l7.76-1.94,3.49,5.51,4.2-8.65A14.26,14.26,0,0,1,18.5,32.73Z"/><path class="cls-2" d="M41.5,32.73,47,43.57,39.2,41.63l-3.49,5.51-4.2-8.65A14.26,14.26,0,0,0,41.5,32.73Z"/><path class="cls-2" d="M30,12.86A11.43,11.43,0,1,0,41.43,24.29,11.44,11.44,0,0,0,30,12.86Zm0,14.28a2.86,2.86,0,1,1,2.86-2.85A2.86,2.86,0,0,1,30,27.14Z"/><circle class="cls-3" cx="30" cy="24.29" r="2.89"/></svg>