<svg id="Layer_1" data-name="Layer 1" xmlns="http://www.w3.org/2000/svg" viewBox="0 0 60 60"><defs><style>.cls-1{fill:#f9edef;}.cls-2{fill:#1d2356;}.cls-3{fill:#ed3a68;}.cls-4{fill:#1f2454;}.cls-5{fill:#1b235a;}.cls-6{fill:#1a2258;}.cls-7{fill:#ffba5d;}</style></defs><circle class="cls-1" cx="30" cy="30" r="30"/><path class="cls-2" d="M27.35,37.58c.35-.1.62.12.91.25l5.32,2.52c.24.28.42.58.15.93s-.67.24-1,.14a25.06,25.06,0,0,0-3.32-1.55c-.23-.39-.43-.83-1-.78-1.24,1.09-2.63,2-3.9,3a1,1,0,0,1-.63.21l-.46-.35a1.07,1.07,0,0,1,.52-1.06c1.24-.88,2.44-1.81,3.65-2.71Z"/><path class="cls-3" d="M34.76,37.58l.67-1.9c.56-.36.6-.46.38-1.1,0-.36,0-.72,0-1.08a4.75,4.75,0,0,0-3-4.59c-1.35.67-2.64,1.33-3.89,2.09a2.17,2.17,0,0,1-1.62.16,1.78,1.78,0,0,1-1.14-1.67,1.92,1.92,0,0,1,1.22-1.73c1.51-.76,3-1.51,4.45-2.39,1.38-.72,2.76-1.46,4.15-2.16q2.4-1.2,4.83-2.34c1.1-.51,2.14-1.12,3.19-1.71a1.68,1.68,0,0,1,2.71,1.19,2.57,2.57,0,0,1,0,.78A1.74,1.74,0,0,0,47.88,23l.17.1a1.75,1.75,0,0,1,1.12,2.21,1.57,1.57,0,0,0,.88,1.93,3.32,3.32,0,0,1,1.71,3.46,1.46,1.46,0,0,1-1,1.38C46.08,34,41.45,36,36.8,38l-2.16.88a.25.25,0,0,0-.1-.08A.76.76,0,0,0,34.76,37.58Z"/><path class="cls-3" d="M23.85,42.29a1,1,0,0,0,.63-.21c1.27-1,2.66-1.9,3.9-3,.56-.05.76.39,1,.78a1.94,1.94,0,0,1-1.11,2.23c-.05,0-.07.1-.11.15l-1.5,1.07Q24.57,44.75,23.85,42.29Z"/><path class="cls-3" d="M20.28,38.18a3.88,3.88,0,0,1,1.3-1.28c.56-.38,1.08-.82,1.64-1.21,1.17-.8,2-.54,2.58.79a45.65,45.65,0,0,0-4,2.86.81.81,0,0,0-.3.78C20.42,39.78,20.3,39.58,20.28,38.18Z"/><path class="cls-3" d="M27.35,37.58l.21.59c-1.21.9-2.41,1.83-3.65,2.71a1.07,1.07,0,0,0-.52,1.06,1.36,1.36,0,0,1-1.33-1.4c.6-.06,1-.52,1.4-.85a19.76,19.76,0,0,0,3.16-2.54Z"/><path class="cls-4" d="M26.62,37.15a19.76,19.76,0,0,1-3.16,2.54c-.43.33-.8.79-1.4.85a1,1,0,0,1-.58-.42.81.81,0,0,1,.3-.78,45.65,45.65,0,0,1,4-2.86A1,1,0,0,1,26.62,37.15Z"/><path class="cls-5" d="M34.76,37.58a.76.76,0,0,1-.22,1.17,4.67,4.67,0,0,1-2-.74c-2.35-1-4.67-2.15-7-3.25-.38-.17-.81-.31-.9-.81a1.47,1.47,0,0,1,.67-.73Z"/><path class="cls-6" d="M35.81,34.58c.22.64.18.74-.38,1.1a14.08,14.08,0,0,1-2.88-1.37c-1.56-.79-3.09-1.63-4.63-2.46-.27-.15-.64-.25-.56-.69A2.17,2.17,0,0,0,29,31Z"/><path class="cls-7" d="M20.28,38.18a18.75,18.75,0,0,1-2.55-1.24c-2.68-1.41-5.34-2.85-8-4.29A4.77,4.77,0,0,1,9,32.22a1.56,1.56,0,0,1-.24-2.45,2,2,0,0,0,.47-2.08A2.46,2.46,0,0,1,9.94,25a2.43,2.43,0,0,0,.92-2,2.13,2.13,0,0,1,3.09-2c1.34.59,2.69,1.15,4,1.72,1.92.8,3.85,1.58,5.76,2.39a2.3,2.3,0,0,0,1,.13l7.18,0c-1.44.88-2.94,1.63-4.45,2.39a1.92,1.92,0,0,0-1.22,1.73,1.78,1.78,0,0,0,1.14,1.67c-.08.44.29.54.56.69,1.54.83,3.07,1.67,4.63,2.46a14.08,14.08,0,0,0,2.88,1.37l-.67,1.9-9.45-4.36a1.47,1.47,0,0,0-.67.73c.09.5.52.64.9.81,2.33,1.1,4.65,2.2,7,3.25a4.67,4.67,0,0,0,2,.74.25.25,0,0,1,.1.08c-.71.26-.76,1-1.06,1.52l-5.32-2.52c-.29-.13-.56-.35-.91-.25l-.73-.43a1,1,0,0,0-.82-.67c-.6-1.33-1.41-1.59-2.58-.79-.56.39-1.08.83-1.64,1.21A3.88,3.88,0,0,0,20.28,38.18Z"/><path class="cls-7" d="M28.15,42.25s.06-.13.11-.15a1.94,1.94,0,0,0,1.11-2.23,25.06,25.06,0,0,1,3.32,1.55,12.2,12.2,0,0,1-2.43,1A3.54,3.54,0,0,1,28.15,42.25Z"/><path class="cls-7" d="M35.81,34.58,29,31c1.25-.76,2.54-1.42,3.89-2.09a4.75,4.75,0,0,1,3,4.59C35.84,33.86,35.82,34.22,35.81,34.58Z"/></svg>