<svg id="Layer_1" data-name="Layer 1" xmlns="http://www.w3.org/2000/svg" viewBox="0 0 60 60"><defs><style>.cls-1{fill:#f9edef;}.cls-2{fill:#ed3a68;}.cls-3{fill:#ffba5d;}</style></defs><circle class="cls-1" cx="30" cy="30" r="30"/><path class="cls-2" d="M42.41,17.46a1.19,1.19,0,0,0-.38-.25,1.31,1.31,0,0,0-.44-.07C26.56,17.93,21,31.32,21,31.45a1.1,1.1,0,0,0-.06.62,1.06,1.06,0,0,0,.29.54l6.06,6.06a1.05,1.05,0,0,0,.55.29,1.1,1.1,0,0,0,.62-.06c.13,0,13.45-5.67,14.3-20.62a1.18,1.18,0,0,0-.07-.45A1.12,1.12,0,0,0,42.41,17.46ZM33.66,29.23a2.12,2.12,0,0,1-1.1.59,2.14,2.14,0,0,1-1.24-4.08,2.17,2.17,0,0,1,2.34.46,2.18,2.18,0,0,1,.63,1.52A2.13,2.13,0,0,1,33.66,29.23Z"/><path class="cls-3" d="M18.34,37.19a3,3,0,0,1,1-.66,3.13,3.13,0,0,1,1.17-.23,2.78,2.78,0,0,1,1.17.23,3,3,0,0,1,1.65,1.65,2.78,2.78,0,0,1,.23,1.17,3.13,3.13,0,0,1-.23,1.17,2.85,2.85,0,0,1-.67,1c-1.19,1.19-5.5,1.22-5.5,1.22S17.14,38.38,18.34,37.19Z"/><path class="cls-3" d="M28.24,19.51a9.56,9.56,0,0,0-9.88,4.59,1.09,1.09,0,0,0-.14.68,1,1,0,0,0,.31.62l2.13,2.14A28.44,28.44,0,0,1,28.24,19.51Z"/><path class="cls-3" d="M40.35,31.62A9.59,9.59,0,0,1,37.69,40a9.9,9.9,0,0,1-1.93,1.48,1.08,1.08,0,0,1-.68.14,1,1,0,0,1-.62-.31L32.32,39.2A28.44,28.44,0,0,0,40.35,31.62Z"/></svg>