<svg id="Layer_1" data-name="Layer 1" xmlns="http://www.w3.org/2000/svg" viewBox="0 0 60 60"><defs><style>.cls-1{fill:#f9edef;}.cls-2{fill:#ed3a68;}.cls-3{fill:#ffba5d;}</style></defs><circle class="cls-1" cx="30" cy="30" r="30"/><path class="cls-2" d="M45.86,36.86c-.28-.37-6.86-9-15.86-9s-15.58,8.63-15.86,9a1.08,1.08,0,0,0,0,1.28c.28.37,6.86,9,15.86,9s15.58-8.63,15.86-9a1.08,1.08,0,0,0,0-1.28ZM30,42.86a5.36,5.36,0,1,1,3.79-1.57A5.36,5.36,0,0,1,30,42.86Z"/><path class="cls-3" d="M28.43,15.1A12.86,12.86,0,0,1,40.14,20l1.69-1.32a15,15,0,0,0-23.66,0L19.87,20a12.77,12.77,0,0,1,8.56-4.85Z"/><path class="cls-3" d="M29.58,20.38a7.35,7.35,0,0,0-2.83.72,7.63,7.63,0,0,0-2.34,1.76L26,24.29a5.44,5.44,0,0,1,3.69-1.78,5.56,5.56,0,0,1,2.07.3,5.19,5.19,0,0,1,1.8,1.06,4.16,4.16,0,0,1,.42.42l1.6-1.43c-.19-.2-.38-.4-.59-.59a7.48,7.48,0,0,0-2.52-1.49A7.31,7.31,0,0,0,29.58,20.38Z"/></svg>