<?xml version="1.0" encoding="utf-8"?>
<!-- Generator: Adobe Illustrator 25.2.0, SVG Export Plug-In . SVG Version: 6.00 Build 0)  -->
<svg version="1.1" id="Layer_1" xmlns="http://www.w3.org/2000/svg" xmlns:xlink="http://www.w3.org/1999/xlink" x="0px" y="0px"
	 viewBox="0 0 40 40" style="enable-background:new 0 0 40 40;" xml:space="preserve">
<style type="text/css">
	.st0{fill:none;stroke:#ed3c69;stroke-miterlimit:10;}
	.st1{fill:#ed3c69;}
</style>
<g>
	<circle class="st0" cx="20" cy="20" r="19.5"/>
	<g>
		<g>
			<g>
				<g>
					<path class="st1" d="M13,13.6c-0.4,0-0.8,0.2-1.1,0.5l-0.8,0.8c-1.3,1.3-1.7,3.2-1,5.5c0.6,1.9,1.9,4,3.8,5.8
						c3.1,3.1,8.2,5.9,11.3,2.8l0.8-0.8c0.6-0.6,0.6-1.7,0-2.3c0,0,0,0,0,0l-2.1-2.1c-0.6-0.6-1.7-0.6-2.3,0l0,0l-0.8,0.8
						c-0.7,0.7-2.4-0.2-3.7-1.4c-1.5-1.5-2.3-3.3-1.6-3.9l0.8-0.8c0.6-0.6,0.6-1.7,0-2.3l-2.1-2.1C13.9,13.8,13.5,13.6,13,13.6
						L13,13.6z M22.2,24.4c0.3-0.3,0.8-0.3,1.1,0l2.1,2.1c0.3,0.3,0.3,0.8,0,1.1c0,0,0,0,0,0l-0.5,0.5l-3.2-3.2L22.2,24.4z
						 M16.5,23.8c1.3,1.3,3.3,2.5,4.5,1.7l3.2,3.2c-2.8,2.2-7.3-0.6-9.8-3.1c-3.1-3.1-5-7.3-3.1-9.8l3.2,3.2
						C13.9,20.3,15,22.3,16.5,23.8L16.5,23.8z M15.7,17.9l-0.5,0.5L12,15.2l0.5-0.5c0.3-0.3,0.8-0.3,1.1,0l2.1,2.1
						C16,17.1,16,17.6,15.7,17.9L15.7,17.9z M19.7,15.6c2.5,0.6,4,2.2,4.6,4.6c0.1,0.2-0.1,0.5-0.3,0.5c-0.2,0.1-0.4-0.1-0.5-0.3
						c-0.5-2.2-1.9-3.5-4-4c-0.2-0.1-0.4-0.3-0.3-0.5C19.3,15.6,19.5,15.5,19.7,15.6C19.7,15.6,19.7,15.6,19.7,15.6z M21,12.7
						c3.3,0.8,5.4,2.9,6.2,6.2c0.1,0.2-0.1,0.5-0.3,0.5c-0.2,0.1-0.5-0.1-0.5-0.3c0,0,0,0,0,0c-0.7-3-2.6-4.9-5.6-5.6
						c-0.2-0.1-0.4-0.3-0.3-0.5C20.6,12.7,20.8,12.6,21,12.7z M21.7,10.5c-0.2-0.1-0.4-0.3-0.3-0.5c0.1-0.2,0.3-0.4,0.5-0.3
						c0,0,0,0,0,0c4.4,1.1,7.2,3.9,8.3,8.3c0.1,0.2-0.1,0.5-0.3,0.5c-0.2,0.1-0.5-0.1-0.5-0.3c0,0,0,0,0,0
						C28.4,14,25.9,11.5,21.7,10.5L21.7,10.5z"/>
				</g>
			</g>
		</g>
	</g>
</g>
</svg>
