<?xml version="1.0" encoding="utf-8"?>
<!-- Generator: Adobe Illustrator 25.2.0, SVG Export Plug-In . SVG Version: 6.00 Build 0)  -->
<svg version="1.1" id="Layer_1" xmlns="http://www.w3.org/2000/svg" xmlns:xlink="http://www.w3.org/1999/xlink" x="0px" y="0px"
	 viewBox="0 0 40 40" style="enable-background:new 0 0 40 40;" xml:space="preserve">
<style type="text/css">
	.st0{fill:none;stroke:#aa076b;stroke-miterlimit:10;}
	.st1{fill:#aa076b;}
</style>
<g>
	<circle class="st0" cx="20" cy="20" r="19.5"/>
	<g>
		<g>
			<g>
				<path class="st1" d="M16.8,18.1c0.2,0,0.4-0.2,0.4-0.4c0-0.2-0.2-0.4-0.4-0.4c-0.2,0-0.4,0.2-0.4,0.4
					C16.4,17.9,16.6,18.1,16.8,18.1z"/>
				<path class="st1" d="M24.7,14.1C24.7,14.1,24.7,14.1,24.7,14.1C24.7,14.1,24.7,14.1,24.7,14.1C24.7,14.1,24.7,14.1,24.7,14.1
					C24.7,14.1,24.7,14.1,24.7,14.1C24.7,14.1,24.7,14.1,24.7,14.1C24.7,14.1,24.7,14,24.7,14.1C24.6,14,24.6,14,24.7,14.1
					c-0.1-0.1-0.2-0.2-0.2-0.2c-0.1-0.1-0.2-0.1-0.3-0.2c0,0,0,0,0,0c-0.1-0.1-0.2-0.1-0.4-0.2c-0.1,0-0.2-0.1-0.3-0.2h0
					c-0.9-0.5-1.9-0.7-2.9-0.8l-0.8,0c-3.4,0.2-6.5,2.6-6.5,5.9c0,1.4,0.5,2.7,1.5,3.8c0.2,0.8,0,1.7-0.6,2.3
					c-0.1,0.1-0.1,0.3-0.1,0.4c0.1,0.1,0.2,0.2,0.4,0.2c1.1,0,2.2-0.4,3-1.2c0.8,0.3,1.8,0.4,2.7,0.4c3.5,0,6.4-2.4,6.7-5.4
					c0-0.2,0-0.3,0-0.5c0-0.1,0-0.3,0-0.4C26.7,16.6,26,15.2,24.7,14.1 M20.2,23.6c-0.9,0-2-0.2-2.7-0.5c-0.2-0.1-0.3,0-0.4,0.1
					c-0.5,0.5-1.1,0.9-1.8,1c0.4-0.7,0.5-1.5,0.2-2.3c0-0.1-0.1-0.1-0.1-0.2c-0.9-0.9-1.4-2.1-1.4-3.3c0-2.8,2.8-5.1,6.1-5.1
					c3.1,0,5.9,2.2,5.9,5.1C26.1,21.3,23.4,23.6,20.2,23.6z"/>
				<path class="st1" d="M23.3,17.3h-5c-0.2,0-0.4,0.2-0.4,0.4s0.2,0.4,0.4,0.4h5c0.2,0,0.4-0.2,0.4-0.4S23.6,17.3,23.3,17.3z"/>
				<path class="st1" d="M23.3,19.6h-6.5c-0.2,0-0.4,0.2-0.4,0.4s0.2,0.4,0.4,0.4h6.5c0.2,0,0.4-0.2,0.4-0.4S23.6,19.6,23.3,19.6z"
					/>
			</g>
			<path class="st1" d="M31.1,15.2h-1.6c-0.5-1.3-1.3-2.4-2.3-3.4c-1.6-1.5-3.6-2.5-5.7-2.8c-3.5-0.5-6.9,0.9-9.2,3.6
				c-0.6,0.8-1.2,1.6-1.6,2.6H9.1c-1.3,0-2.3,1.1-2.3,2.3v3.1c0,1.3,1.1,2.3,2.3,2.3h3.2l-0.3-1c-1-3-0.4-6,1.5-8.4
				c1.9-2.3,4.8-3.4,7.8-3c3.7,0.5,6.7,3.4,7.3,7.1c0.4,2.5-0.3,5.1-1.9,7c-1.6,1.9-4,3-6.5,3c-1.3,0-2.4,1.1-2.4,2.3
				c0,1.3,1.1,2.3,2.3,2.3s2.3-1.1,2.3-2.3V29c2.1-0.5,4-1.6,5.4-3.3c0.7-0.8,1.2-1.7,1.6-2.7h1.6c1.3,0,2.3-1.1,2.3-2.3v-3.1
				C33.4,16.3,32.3,15.2,31.1,15.2L31.1,15.2z M10.2,21.5H9.1c-0.4,0-0.8-0.4-0.8-0.8v-3.1c0-0.4,0.4-0.8,0.8-0.8h1.1
				c0,0.1-0.1,0.2-0.1,0.4C9.8,18.6,9.9,20,10.2,21.5z M20.8,30.1c0,0.4-0.4,0.8-0.8,0.8c-0.4,0-0.8-0.4-0.8-0.8
				c0-0.4,0.4-0.8,0.8-0.8c0.3,0,0.5,0,0.8,0V30.1z M31.8,20.7c0,0.4-0.4,0.8-0.8,0.8h-1.1c0.3-1.3,0.4-2.6,0.1-4
				c0-0.2-0.1-0.5-0.1-0.7h1.1c0.4,0,0.8,0.4,0.8,0.8L31.8,20.7z"/>
		</g>
	</g>
</g>
</svg>
