<?xml version="1.0" encoding="utf-8"?>
<!-- Generator: Adobe Illustrator 25.2.0, SVG Export Plug-In . SVG Version: 6.00 Build 0)  -->
<svg version="1.1" id="Layer_1" xmlns="http://www.w3.org/2000/svg" xmlns:xlink="http://www.w3.org/1999/xlink" x="0px" y="0px"
	 viewBox="0 0 40 40" style="enable-background:new 0 0 40 40;" xml:space="preserve">
<style type="text/css">
	.st0{fill:none;stroke:#aa076b;stroke-miterlimit:10;}
	.st1{fill:#aa076b;}
</style>
<g>
	<g>
		<g>
			<path class="st1" d="M21.4,27.8c-0.7,0-1.4,0.6-1.4,1.4s0.6,1.4,1.4,1.4c0.7,0,1.4-0.6,1.4-1.4S22.2,27.8,21.4,27.8z M21.4,29.7
				c-0.3,0-0.6-0.3-0.6-0.6s0.3-0.6,0.6-0.6s0.6,0.3,0.6,0.6S21.7,29.7,21.4,29.7z"/>
			<path class="st1" d="M23.2,22.7c0.9,0,1.6-0.7,1.6-1.6c0-0.9-0.7-1.6-1.6-1.6c-0.9,0-1.6,0.7-1.6,1.6
				C21.6,22,22.3,22.7,23.2,22.7z M23.2,20.4c0.4,0,0.8,0.3,0.8,0.8c0,0.4-0.3,0.8-0.8,0.8c-0.4,0-0.8-0.3-0.8-0.8
				C22.4,20.7,22.7,20.4,23.2,20.4z"/>
			<path class="st1" d="M13.8,13c0.1,0,0.2,0,0.3-0.1l0.8-0.8c0.2-0.2,0.2-0.4,0-0.5c-0.2-0.2-0.4-0.2-0.5,0l-0.8,0.8
				c-0.2,0.2-0.2,0.4,0,0.5C13.6,13,13.7,13,13.8,13z"/>
			<path class="st1" d="M27.8,19.9c0-0.3-0.1-0.7-0.4-0.9l-0.2-0.2c0.4-0.3,0.6-0.8,0.6-1.3c0-1-0.8-1.7-1.7-1.7c-0.1,0-0.1,0-0.2,0
				c0-0.1,0-0.1,0-0.2c0-1-0.8-1.7-1.7-1.7c-0.1,0-0.1,0-0.2,0c0-0.1,0-0.1,0-0.2c0-1-0.8-1.7-1.7-1.7c-0.1,0-0.1,0-0.2,0
				c0-0.1,0-0.1,0-0.2c0-1-0.8-1.7-1.7-1.7c-0.5,0-1,0.2-1.3,0.6l-0.3-0.3l-1.5-1.5c-0.5-0.5-1.3-0.5-1.8,0l-4.8,4.8
				c-0.5,0.5-0.5,1.3,0,1.8l1.5,1.5l1.9,1.9c-0.5,0.3-0.9,0.9-0.9,1.5c0,0.6,0.3,1.1,0.8,1.5c0,0,0.1,0.1,0.1,0.1l4.2,4.2v0.7h-0.8
				v5h7h3.1v-5h-0.8v-1.2c0.7-0.6,1.2-1.5,1.2-2.5c0-0.7-0.2-1.3-0.6-1.9l0.2-0.2C27.7,20.6,27.8,20.2,27.8,19.9z M27,17.5
				c0,0.3-0.1,0.6-0.4,0.8l-1.4-1.4c0.2-0.2,0.5-0.4,0.8-0.4C26.6,16.5,27,16.9,27,17.5z M25.1,15.5c0,0.3-0.1,0.6-0.4,0.8l-1.4-1.4
				c0.2-0.2,0.5-0.4,0.8-0.4C24.7,14.6,25.1,15,25.1,15.5z M23.2,13.6c0,0.3-0.1,0.6-0.4,0.8L21.4,13c0.2-0.2,0.5-0.4,0.8-0.4
				C22.7,12.6,23.2,13.1,23.2,13.6z M20.2,10.7c0.5,0,1,0.4,1,1c0,0.3-0.1,0.6-0.4,0.8L19.5,11C19.7,10.8,19.9,10.7,20.2,10.7z
				 M11.1,14.8c-0.2-0.2-0.2-0.5,0-0.7l4.8-4.8c0,0,0.1-0.1,0.2-0.1c0,0,0.1,0,0.1,0c0.1,0,0.1,0,0.2,0c0,0,0.1,0,0.1,0
				c0.1,0,0.1,0.1,0.2,0.1l0.9,0.9L12,15.7L11.1,14.8z M18.1,10.7l0.5,0.5l1.9,1.9l0.2,0.2l1.7,1.7l0.2,0.2l1.7,1.7l0.2,0.2l1.9,1.9
				l0.4,0.4c0.2,0.2,0.2,0.5,0,0.7l-0.2,0.2l0,0L22.1,25c-0.2,0.2-0.5,0.2-0.7,0l-3.1-3.1h0.4c1,0,1.7-0.8,1.7-1.7s-0.8-1.7-1.7-1.7
				h-3.9l-2.2-2.2L18.1,10.7z M14.6,19.3l0.2,0c0,0,0,0,0,0h3.9c0.5,0,1,0.4,1,1s-0.4,1-1,1h-1.2h-1.1h-1.6c-0.5,0-1-0.4-1-1
				C13.8,19.7,14.2,19.3,14.6,19.3z M18.1,30.9v-3.5h3.3c1.2,0,2.2,1,2.2,2.2v1.3H18.1z M26.6,30.9h-2.3v-1.3c0-0.9-0.4-1.6-1-2.2
				h3.3V30.9z M26.7,21.6c0.2,0.4,0.4,0.9,0.4,1.3c0,0.8-0.4,1.5-1,2l-0.2,0.1v1.6h-4.5h-2.5v-1.1l-0.1-0.1c0,0,0,0-0.1-0.1
				l-3.4-3.4h2l3.6,3.6c0.2,0.2,0.6,0.4,0.9,0.4c0.3,0,0.7-0.1,0.9-0.4L26.7,21.6z"/>
		</g>
	</g>
	<circle class="st0" cx="20" cy="20" r="19.5"/>
</g>
</svg>
